<?xml version="1.0" standalone="no"?><!DOCTYPE svg PUBLIC "-//W3C//DTD SVG 1.1//EN" "http://www.w3.org/Graphics/SVG/1.1/DTD/svg11.dtd"><svg width="100%" height="100%" viewBox="0 0 204 155" version="1.1" xmlns="http://www.w3.org/2000/svg" xmlns:xlink="http://www.w3.org/1999/xlink" xml:space="preserve" style="fill-rule:evenodd;clip-rule:evenodd;stroke-linecap:square;stroke-miterlimit:1.41421;"><g><path d="M189.72,31.283c-0.277,-0.719 -0.429,-1.5 -0.429,-2.316c0,-3.557 2.888,-6.446 6.446,-6.446c3.557,0 6.446,2.889 6.446,6.446c0,3.183 -2.312,5.83 -5.347,6.353c-5.663,1.686 -3.541,6.022 -6.842,8.27l-5.126,-2.724l-3.019,-7.178c2.34,-1.442 4.799,-2.707 7.666,-2.425c0.068,0.007 0.136,0.013 0.205,0.02ZM195.479,25.481c1.782,0 3.228,1.446 3.228,3.228c0,1.782 -1.446,3.229 -3.228,3.229c-1.782,0 -3.229,-1.447 -3.229,-3.229c0,-1.782 1.447,-3.228 3.229,-3.228Z" style="fill:#fff;stroke-width:1.5px;stroke:#090000;"/><path d="M194.548,31.858l-4.917,-0.59" style="fill:none;stroke-width:1.5px;stroke:#090000;"/><path d="M62.608,35.491c13.763,-13.574 36.184,-22.015 61.592,-22.907c39.71,-1.393 71.947,18.862 75.19,50.498c1.129,6.056 0.193,16.195 -2.237,25.749c-1.007,3.96 -3.234,9.979 -6.434,14.847c-3.741,5.691 -5.961,11.392 -7.387,16.141c0.478,6.191 -1.492,10.493 -5.737,20.737c-1.271,3.165 -5.645,12.398 -7.281,12.356l-11.915,0c-3.549,-1.415 -4.995,-2.729 -5.516,-4.854c-0.351,-7.109 -2.67,-19.273 -7.646,-26.498c-9.738,2.851 -20.056,4.434 -30.304,4.434c-5.424,0 -10.559,-0.444 -15.389,-1.284c-2.825,4.484 -9.256,18.349 -10.647,21.472c-1.206,3.374 -4.756,5.165 -6.178,4.965c-4.243,0.921 -8.472,0.928 -12.686,0c-2.827,-0.224 -5.706,-2.619 -4.965,-4.965c0.469,-9.684 0.094,-19.258 -1.617,-28.658c-2.108,-0.522 -3.943,-2.195 -5.181,-4.552c-0.664,0.098 -1.34,0.173 -2.027,0.225c-6.142,0.463 -12.179,-1.174 -17.51,-4.337c-8.224,-3.103 -16.282,-6.385 -22.295,-11.873c-1.909,-1.771 -4.651,-3.381 -7.024,-4.497c-1.701,-1.308 -0.825,-2.462 0.366,-2.55l14.748,-0.17l-0.075,-0.027l-16.239,-0.081c-2.922,0 -4.165,-1.716 -4.467,-4.436l-1.782,-13.951c-0.248,-2.647 2.338,-3.443 5.737,-3.972l6.248,-0.763c2.464,-0.066 7.621,-4.632 9.513,-7.781c4.891,-10.998 14.66,-17.927 26.819,-18.355c-0.385,-0.987 -0.619,-2.119 -0.651,-3.413c-0.175,-7.039 -6.871,-13.422 -2.784,-13.876c3.972,-0.442 14.666,4.491 15.761,12.376Z" style="fill:#fff;stroke-width:2.25px;stroke:#090000;"/><path d="M34.398,27.493c3.659,-3.35 19.607,-0.306 24.849,8.106c1.982,0.811 4.121,0.923 3.897,2.903c5.798,1.737 6.436,4.895 5.103,9.347c-1.351,4.511 -9.128,12.394 -13.262,14.068c-7.036,2.849 -9.619,4.906 -13.564,-4.05c-2.271,-2.12 -4.672,-5.653 -4.283,-11.315c-2.526,-7.312 -5.994,-17.926 -2.74,-19.059Z" style="fill:#fff;"/><path d="M39.696,24.846l0.219,0.003l0.22,0.005l0.222,0.008l0.223,0.01l0.226,0.012l0.226,0.015l0.229,0.017l0.23,0.019l0.231,0.022l0.233,0.024l0.234,0.026l0.236,0.029l0.237,0.031l0.238,0.033l0.239,0.036l0.24,0.037l0.241,0.04l0.243,0.043l0.243,0.044l0.244,0.047l0.245,0.049l0.245,0.051l0.246,0.054l0.247,0.055l0.248,0.059l0.248,0.06l0.248,0.062l0.249,0.065l0.249,0.067l0.249,0.069l0.25,0.072l0.25,0.073l0.25,0.076l0.25,0.079l0.249,0.08l0.25,0.083l0.25,0.085l0.249,0.087l0.249,0.089l0.249,0.092l0.249,0.093l0.247,0.096l0.248,0.099l0.247,0.1l0.245,0.102l0.124,0.053l0.122,0.053l0.123,0.053l0.122,0.054l0.122,0.055l0.122,0.055l0.122,0.055l0.121,0.057l0.121,0.056l0.121,0.058l0.121,0.057l0.12,0.059l0.12,0.059l0.12,0.059l0.12,0.06l0.119,0.061l0.119,0.061l0.119,0.062l0.118,0.062l0.118,0.063l0.118,0.064l0.117,0.064l0.117,0.065l0.117,0.065l0.116,0.065l0.116,0.067l0.115,0.067l0.116,0.067l0.114,0.068l0.115,0.069l0.114,0.069l0.113,0.07l0.113,0.07l0.113,0.071l0.112,0.072l0.112,0.072l0.111,0.073l0.111,0.073l0.11,0.074l0.11,0.074l0.11,0.075l0.108,0.076l0.109,0.076l0.108,0.077l0.107,0.077l0.107,0.078l0.106,0.078l0.106,0.079l0.105,0.08l0.104,0.08l0.104,0.081l0.104,0.082l0.103,0.082l0.102,0.082l0.102,0.084l0.101,0.084l0.1,0.084l0.1,0.085l0.099,0.086l0.098,0.086l0.098,0.087l0.097,0.087l0.096,0.088l0.096,0.089l0.095,0.089l0.094,0.09l0.094,0.091l0.093,0.091l0.092,0.092l0.091,0.092l0.091,0.093l0.09,0.094l0.089,0.094l0.088,0.095l0.088,0.095l0.087,0.096l0.085,0.097l0.086,0.097l0.084,0.098l0.083,0.099l0.083,0.099l0.081,0.1l0.081,0.1l0.08,0.102l0.079,0.101l0.078,0.103l0.077,0.103l0.077,0.103l0.075,0.105l0.074,0.105l0.074,0.105l0.072,0.106l0.037,0.054l0.041,0.015l0.083,0.03l0.176,0.061l0.175,0.059l0.178,0.059l0.361,0.118l0.183,0.06l0.183,0.062l0.182,0.063l0.095,0.033l0.092,0.034l0.093,0.035l0.092,0.036l0.093,0.037l0.093,0.039l0.093,0.04l0.093,0.041l0.093,0.044l0.093,0.045l0.092,0.048l0.093,0.049l0.093,0.053l0.092,0.055l0.092,0.058l0.091,0.062l0.087,0.061l0.049,0.037l0.045,0.035l0.045,0.036l0.044,0.037l0.044,0.037l0.044,0.039l0.043,0.04l0.043,0.041l0.043,0.043l0.042,0.043l0.041,0.045l0.041,0.046l0.04,0.046l0.039,0.049l0.039,0.049l0.038,0.05l0.036,0.052l0.036,0.053l0.035,0.054l0.034,0.055l0.032,0.056l0.032,0.057l0.03,0.058l0.029,0.059l0.028,0.059l0.026,0.061l0.025,0.062l0.024,0.062l0.022,0.063l0.02,0.064l0.019,0.064l0.018,0.064l0.016,0.066l0.005,0.024l0.098,0.035l0.133,0.048l0.131,0.05l0.129,0.049l0.128,0.051l0.126,0.051l0.124,0.052l0.123,0.053l0.121,0.053l0.12,0.055l0.118,0.055l0.117,0.055l0.115,0.057l0.113,0.057l0.112,0.058l0.111,0.059l0.109,0.059l0.107,0.061l0.106,0.061l0.105,0.062l0.103,0.063l0.101,0.064l0.1,0.064l0.098,0.066l0.097,0.066l0.096,0.067l0.094,0.068l0.092,0.069l0.091,0.07l0.089,0.07l0.088,0.072l0.087,0.072l0.084,0.074l0.084,0.074l0.081,0.075l0.081,0.076l0.078,0.077l0.077,0.078l0.076,0.079l0.074,0.08l0.072,0.081l0.071,0.081l0.069,0.082l0.067,0.084l0.066,0.084l0.064,0.085l0.063,0.085l0.061,0.087l0.059,0.087l0.057,0.088l0.056,0.089l0.054,0.09l0.053,0.09l0.051,0.091l0.049,0.092l0.047,0.092l0.046,0.093l0.044,0.094l0.042,0.094l0.041,0.095l0.038,0.095l0.038,0.096l0.035,0.096l0.034,0.097l0.032,0.097l0.031,0.098l0.029,0.098l0.027,0.098l0.026,0.099l0.024,0.099l0.022,0.1l0.021,0.099l0.02,0.1l0.018,0.101l0.016,0.1l0.015,0.101l0.014,0.101l0.012,0.101l0.011,0.102l0.009,0.102l0.008,0.102l0.006,0.102l0.006,0.102l0.004,0.102l0.002,0.103l0.002,0.103l0,0.103l-0.001,0.103l-0.002,0.104l-0.004,0.103l-0.005,0.104l-0.005,0.104l-0.007,0.104l-0.008,0.104l-0.009,0.105l-0.011,0.104l-0.011,0.105l-0.012,0.105l-0.013,0.105l-0.015,0.105l-0.015,0.106l-0.016,0.106l-0.017,0.106l-0.018,0.106l-0.02,0.106l-0.02,0.107l-0.02,0.107l-0.022,0.107l-0.023,0.107l-0.023,0.107l-0.025,0.108l-0.025,0.108l-0.026,0.108l-0.027,0.109l-0.027,0.108l-0.029,0.109l-0.029,0.11l-0.03,0.109l-0.03,0.11l-0.032,0.11l-0.032,0.11l-0.034,0.115l-0.038,0.123l-0.042,0.128l-0.044,0.128l-0.046,0.128l-0.049,0.129l-0.05,0.128l-0.053,0.129l-0.055,0.13l-0.057,0.13l-0.059,0.13l-0.061,0.13l-0.063,0.131l-0.065,0.132l-0.067,0.132l-0.069,0.132l-0.07,0.132l-0.073,0.133l-0.074,0.133l-0.076,0.134l-0.077,0.134l-0.079,0.135l-0.081,0.134l-0.083,0.136l-0.084,0.135l-0.086,0.136l-0.087,0.136l-0.089,0.136l-0.09,0.137l-0.092,0.137l-0.093,0.137l-0.095,0.137l-0.096,0.138l-0.098,0.138l-0.098,0.138l-0.1,0.138l-0.102,0.138l-0.102,0.138l-0.104,0.139l-0.106,0.138l-0.106,0.139l-0.107,0.138l-0.109,0.139l-0.11,0.138l-0.11,0.139l-0.112,0.138l-0.113,0.138l-0.114,0.139l-0.115,0.138l-0.115,0.138l-0.117,0.137l-0.118,0.138l-0.118,0.137l-0.119,0.138l-0.12,0.136l-0.121,0.137l-0.122,0.136l-0.122,0.136l-0.123,0.135l-0.124,0.136l-0.125,0.134l-0.125,0.134l-0.125,0.134l-0.126,0.133l-0.127,0.133l-0.127,0.132l-0.128,0.132l-0.128,0.131l-0.129,0.131l-0.129,0.129l-0.129,0.129l-0.13,0.129l-0.13,0.128l-0.131,0.127l-0.13,0.126l-0.131,0.125l-0.131,0.125l-0.132,0.123l-0.131,0.123l-0.132,0.122l-0.132,0.121l-0.132,0.12l-0.132,0.12l-0.132,0.118l-0.132,0.117l-0.132,0.116l-0.132,0.115l-0.132,0.114l-0.132,0.113l-0.132,0.111l-0.132,0.111l-0.131,0.109l-0.132,0.108l-0.131,0.107l-0.131,0.105l-0.13,0.105l-0.131,0.103l-0.13,0.101l-0.13,0.1l-0.129,0.099l-0.13,0.098l-0.129,0.096l-0.128,0.094l-0.128,0.093l-0.128,0.092l-0.127,0.09l-0.127,0.088l-0.126,0.087l-0.126,0.085l-0.125,0.084l-0.125,0.082l-0.124,0.08l-0.124,0.079l-0.123,0.077l-0.123,0.075l-0.122,0.073l-0.121,0.072l-0.122,0.069l-0.12,0.068l-0.12,0.066l-0.119,0.064l-0.119,0.062l-0.119,0.061l-0.117,0.058l-0.118,0.056l-0.117,0.054l-0.116,0.053l-0.116,0.05l-0.11,0.045l-0.328,0.134l-0.317,0.13l-0.311,0.129l-0.306,0.127l-0.598,0.249l-0.577,0.241l-0.283,0.116l-0.278,0.114l-0.275,0.111l-0.271,0.108l-0.267,0.104l-0.133,0.051l-0.132,0.05l-0.131,0.049l-0.131,0.047l-0.13,0.047l-0.129,0.046l-0.128,0.045l-0.128,0.043l-0.128,0.042l-0.127,0.042l-0.127,0.039l-0.126,0.039l-0.126,0.037l-0.125,0.036l-0.125,0.035l-0.125,0.033l-0.125,0.032l-0.124,0.03l-0.124,0.028l-0.125,0.027l-0.124,0.025l-0.124,0.023l-0.124,0.022l-0.124,0.02l-0.124,0.017l-0.124,0.016l-0.124,0.014l-0.124,0.011l-0.125,0.01l-0.124,0.007l-0.125,0.004l-0.125,0.002l-0.124,0l-0.125,-0.003l-0.125,-0.005l-0.125,-0.009l-0.125,-0.011l-0.125,-0.014l-0.121,-0.016l-0.066,-0.01l-0.062,-0.01l-0.063,-0.011l-0.062,-0.012l-0.062,-0.013l-0.062,-0.013l-0.062,-0.014l-0.062,-0.015l-0.062,-0.016l-0.061,-0.017l-0.062,-0.017l-0.061,-0.018l-0.062,-0.019l-0.061,-0.02l-0.061,-0.02l-0.061,-0.022l-0.06,-0.022l-0.061,-0.023l-0.06,-0.024l-0.06,-0.024l-0.06,-0.026l-0.059,-0.026l-0.06,-0.027l-0.059,-0.027l-0.059,-0.029l-0.059,-0.029l-0.058,-0.03l-0.058,-0.031l-0.058,-0.032l-0.058,-0.032l-0.057,-0.034l-0.058,-0.034l-0.057,-0.034l-0.056,-0.036l-0.057,-0.036l-0.056,-0.037l-0.056,-0.038l-0.055,-0.038l-0.055,-0.04l-0.055,-0.04l-0.055,-0.04l-0.055,-0.042l-0.054,-0.042l-0.054,-0.043l-0.053,-0.043l-0.054,-0.045l-0.053,-0.045l-0.053,-0.045l-0.052,-0.047l-0.055,-0.049l-0.101,-0.094l-0.103,-0.099l-0.102,-0.102l-0.102,-0.105l-0.1,-0.107l-0.1,-0.111l-0.098,-0.113l-0.098,-0.116l-0.098,-0.119l-0.097,-0.122l-0.096,-0.124l-0.096,-0.127l-0.095,-0.131l-0.095,-0.133l-0.094,-0.136l-0.094,-0.14l-0.094,-0.142l-0.093,-0.145l-0.094,-0.149l-0.093,-0.151l-0.092,-0.155l-0.093,-0.158l-0.093,-0.161l-0.092,-0.165l-0.093,-0.168l-0.093,-0.171l-0.092,-0.174l-0.093,-0.178l-0.093,-0.181l-0.093,-0.185l-0.093,-0.189l-0.093,-0.192l-0.094,-0.195l-0.093,-0.199l-0.094,-0.203l-0.095,-0.207l-0.082,-0.182l-0.034,-0.033l-0.116,-0.114l-0.116,-0.116l-0.116,-0.118l-0.116,-0.121l-0.116,-0.124l-0.116,-0.126l-0.115,-0.128l-0.115,-0.131l-0.115,-0.134l-0.114,-0.136l-0.113,-0.138l-0.113,-0.141l-0.112,-0.144l-0.111,-0.147l-0.111,-0.149l-0.109,-0.151l-0.107,-0.153l-0.055,-0.08l-0.053,-0.079l-0.054,-0.079l-0.052,-0.081l-0.053,-0.08l-0.052,-0.082l-0.052,-0.082l-0.051,-0.083l-0.051,-0.084l-0.051,-0.084l-0.051,-0.085l-0.049,-0.086l-0.05,-0.086l-0.049,-0.087l-0.049,-0.088l-0.048,-0.089l-0.048,-0.089l-0.047,-0.09l-0.047,-0.091l-0.047,-0.091l-0.046,-0.092l-0.045,-0.093l-0.045,-0.093l-0.045,-0.094l-0.044,-0.095l-0.043,-0.096l-0.043,-0.096l-0.043,-0.097l-0.041,-0.097l-0.042,-0.099l-0.04,-0.099l-0.04,-0.1l-0.04,-0.1l-0.039,-0.102l-0.038,-0.102l-0.037,-0.102l-0.037,-0.104l-0.037,-0.104l-0.035,-0.105l-0.036,-0.105l-0.034,-0.107l-0.034,-0.107l-0.033,-0.107l-0.032,-0.109l-0.031,-0.109l-0.031,-0.11l-0.03,-0.111l-0.03,-0.111l-0.028,-0.112l-0.028,-0.113l-0.027,-0.113l-0.027,-0.115l-0.025,-0.115l-0.025,-0.115l-0.024,-0.117l-0.023,-0.117l-0.022,-0.118l-0.022,-0.118l-0.021,-0.12l-0.02,-0.12l-0.019,-0.12l-0.018,-0.122l-0.017,-0.122l-0.016,-0.123l-0.016,-0.124l-0.014,-0.124l-0.014,-0.125l-0.013,-0.126l-0.012,-0.126l-0.011,-0.128l-0.01,-0.128l-0.009,-0.129l-0.008,-0.129l-0.007,-0.13l-0.006,-0.131l-0.005,-0.132l-0.005,-0.132l-0.003,-0.133l-0.002,-0.134l-0.001,-0.134l-0.001,-0.136l0.001,-0.136l0.002,-0.136l0.003,-0.138l0.004,-0.138l0.005,-0.139l0.006,-0.14l0.007,-0.14l0,-0.013l-0.154,-0.449l-0.245,-0.714l-0.123,-0.364l-0.124,-0.367l-0.125,-0.37l-0.124,-0.373l-0.125,-0.376l-0.124,-0.379l-0.125,-0.38l-0.123,-0.382l-0.123,-0.384l-0.123,-0.385l-0.121,-0.387l-0.12,-0.386l-0.119,-0.388l-0.117,-0.387l-0.115,-0.387l-0.114,-0.387l-0.111,-0.386l-0.109,-0.386l-0.107,-0.384l-0.105,-0.382l-0.101,-0.38l-0.05,-0.19l-0.049,-0.19l-0.048,-0.188l-0.047,-0.188l-0.047,-0.187l-0.045,-0.187l-0.045,-0.186l-0.044,-0.185l-0.043,-0.184l-0.042,-0.184l-0.041,-0.183l-0.04,-0.182l-0.039,-0.181l-0.038,-0.18l-0.037,-0.179l-0.036,-0.178l-0.035,-0.177l-0.034,-0.177l-0.033,-0.175l-0.031,-0.174l-0.031,-0.173l-0.029,-0.172l-0.028,-0.171l-0.026,-0.169l-0.025,-0.169l-0.024,-0.167l-0.023,-0.166l-0.021,-0.164l-0.02,-0.164l-0.019,-0.162l-0.017,-0.161l-0.015,-0.159l-0.015,-0.159l-0.012,-0.156l-0.011,-0.156l-0.009,-0.154l-0.008,-0.153l-0.006,-0.151l-0.004,-0.15l-0.003,-0.149l-0.001,-0.148l0.002,-0.146l0.003,-0.144l0.005,-0.144l0.007,-0.142l0.009,-0.14l0.011,-0.14l0.014,-0.138l0.016,-0.137l0.018,-0.135l0.021,-0.131l0.012,-0.071l0.012,-0.066l0.013,-0.066l0.013,-0.066l0.015,-0.066l0.015,-0.065l0.015,-0.065l0.017,-0.065l0.017,-0.064l0.019,-0.065l0.019,-0.064l0.02,-0.063l0.021,-0.063l0.021,-0.064l0.023,-0.062l0.024,-0.063l0.025,-0.062l0.026,-0.062l0.026,-0.061l0.028,-0.061l0.029,-0.061l0.031,-0.06l0.031,-0.06l0.033,-0.06l0.034,-0.059l0.035,-0.058l0.036,-0.059l0.038,-0.057l0.039,-0.057l0.041,-0.056l0.042,-0.056l0.043,-0.055l0.045,-0.054l0.046,-0.053l0.047,-0.052l0.049,-0.052l0.051,-0.05l0.052,-0.05l0.053,-0.048l0.055,-0.047l0.056,-0.046l0.057,-0.044l0.058,-0.043l0.06,-0.042l0.061,-0.04l0.062,-0.038l0.064,-0.037l0.064,-0.036l0.065,-0.034l0.067,-0.032l0.009,-0.004l0.001,-0.001l0.067,-0.053l0.067,-0.052l0.068,-0.05l0.069,-0.049l0.07,-0.048l0.071,-0.046l0.072,-0.046l0.073,-0.044l0.073,-0.043l0.074,-0.042l0.075,-0.041l0.076,-0.04l0.076,-0.039l0.077,-0.038l0.078,-0.037l0.078,-0.036l0.08,-0.035l0.079,-0.034l0.081,-0.033l0.081,-0.032l0.082,-0.031l0.083,-0.031l0.083,-0.029l0.084,-0.029l0.085,-0.028l0.085,-0.027l0.086,-0.026l0.086,-0.025l0.087,-0.025l0.088,-0.024l0.088,-0.023l0.089,-0.022l0.09,-0.022l0.09,-0.021l0.091,-0.02l0.092,-0.019l0.092,-0.019l0.093,-0.018l0.093,-0.017l0.094,-0.017l0.094,-0.016l0.095,-0.015l0.096,-0.015l0.096,-0.014l0.097,-0.013l0.098,-0.012l0.098,-0.012l0.098,-0.011l0.099,-0.011l0.1,-0.01l0.1,-0.009l0.101,-0.009l0.101,-0.008l0.102,-0.007l0.103,-0.007l0.103,-0.006l0.103,-0.006l0.104,-0.005l0.105,-0.004l0.105,-0.004l0.105,-0.003l0.106,-0.002l0.107,-0.002l0.107,-0.001l0.109,-0.001l0.214,0.001ZM39.395,27.471l-0.092,0.001l-0.091,0.001l-0.091,0.003l-0.09,0.002l-0.089,0.003l-0.089,0.004l-0.087,0.004l-0.087,0.005l-0.087,0.005l-0.085,0.005l-0.085,0.007l-0.084,0.006l-0.083,0.007l-0.083,0.008l-0.081,0.008l-0.081,0.009l-0.08,0.009l-0.079,0.009l-0.078,0.01l-0.077,0.011l-0.077,0.011l-0.075,0.011l-0.074,0.012l-0.074,0.013l-0.073,0.013l-0.071,0.013l-0.071,0.014l-0.07,0.014l-0.068,0.014l-0.068,0.015l-0.067,0.016l-0.065,0.016l-0.065,0.016l-0.064,0.016l-0.062,0.017l-0.061,0.018l-0.061,0.017l-0.059,0.018l-0.058,0.019l-0.057,0.019l-0.055,0.019l-0.055,0.019l-0.053,0.02l-0.052,0.02l-0.051,0.02l-0.05,0.02l-0.049,0.021l-0.047,0.021l-0.046,0.021l-0.045,0.021l-0.043,0.021l-0.043,0.022l-0.041,0.022l-0.039,0.021l-0.039,0.022l-0.037,0.022l-0.036,0.022l-0.035,0.022l-0.033,0.022l-0.032,0.022l-0.031,0.022l-0.03,0.022l-0.028,0.022l-0.027,0.021l-0.026,0.022l-0.025,0.021l-0.224,0.2l-0.261,0.095l-0.006,0.002l-0.005,0.003l-0.005,0.002l-0.005,0.002l-0.004,0.002l-0.004,0.003l-0.004,0.002l-0.004,0.002l-0.004,0.003l-0.003,0.002l-0.004,0.003l-0.004,0.003l-0.005,0.004l-0.004,0.003l-0.005,0.005l-0.004,0.004l-0.005,0.005l-0.006,0.006l-0.006,0.006l-0.006,0.007l-0.006,0.008l-0.007,0.008l-0.007,0.01l-0.007,0.01l-0.007,0.011l-0.008,0.011l-0.008,0.013l-0.008,0.014l-0.009,0.015l-0.008,0.015l-0.009,0.017l-0.009,0.018l-0.009,0.019l-0.009,0.02l-0.009,0.021l-0.01,0.022l-0.009,0.023l-0.009,0.024l-0.009,0.025l-0.009,0.026l-0.009,0.028l-0.009,0.028l-0.009,0.03l-0.009,0.03l-0.008,0.032l-0.009,0.033l-0.008,0.033l-0.008,0.035l-0.008,0.036l-0.007,0.036l-0.007,0.038l-0.007,0.038l-0.007,0.037l-0.013,0.085l-0.012,0.086l-0.01,0.089l-0.009,0.093l-0.008,0.096l-0.006,0.099l-0.006,0.103l-0.003,0.106l-0.003,0.109l-0.001,0.112l0.001,0.114l0.002,0.118l0.003,0.12l0.005,0.123l0.007,0.125l0.007,0.128l0.01,0.131l0.01,0.133l0.012,0.135l0.014,0.137l0.014,0.14l0.017,0.142l0.017,0.143l0.019,0.146l0.02,0.148l0.022,0.15l0.022,0.151l0.024,0.154l0.026,0.155l0.026,0.157l0.028,0.158l0.029,0.16l0.03,0.162l0.031,0.163l0.033,0.164l0.033,0.166l0.035,0.168l0.036,0.169l0.036,0.169l0.038,0.172l0.039,0.172l0.04,0.174l0.04,0.174l0.042,0.176l0.043,0.177l0.043,0.178l0.045,0.178l0.045,0.18l0.046,0.18l0.047,0.181l0.047,0.182l0.098,0.367l0.1,0.368l0.104,0.371l0.106,0.373l0.108,0.375l0.11,0.376l0.112,0.377l0.115,0.378l0.115,0.378l0.118,0.378l0.119,0.378l0.119,0.378l0.121,0.377l0.122,0.375l0.122,0.375l0.123,0.372l0.123,0.371l0.122,0.368l0.123,0.366l0.123,0.363l0.122,0.359l0.243,0.709l0.324,0.943l-0.025,0.391l-0.007,0.122l-0.006,0.121l-0.005,0.12l-0.005,0.12l-0.003,0.118l-0.002,0.118l-0.002,0.117l-0.001,0.117l0.001,0.115l0.001,0.115l0.002,0.114l0.002,0.113l0.004,0.112l0.004,0.112l0.006,0.111l0.006,0.11l0.006,0.109l0.008,0.109l0.009,0.107l0.009,0.107l0.01,0.107l0.01,0.105l0.012,0.105l0.012,0.104l0.013,0.103l0.014,0.103l0.014,0.102l0.015,0.101l0.016,0.1l0.016,0.1l0.018,0.099l0.017,0.099l0.019,0.097l0.019,0.097l0.02,0.096l0.02,0.096l0.022,0.095l0.021,0.094l0.023,0.093l0.022,0.093l0.024,0.092l0.024,0.092l0.025,0.09l0.025,0.091l0.026,0.089l0.027,0.089l0.027,0.088l0.027,0.088l0.028,0.087l0.029,0.086l0.029,0.086l0.03,0.085l0.03,0.084l0.031,0.084l0.031,0.083l0.031,0.083l0.033,0.082l0.032,0.081l0.033,0.081l0.034,0.08l0.034,0.08l0.034,0.079l0.035,0.078l0.036,0.078l0.036,0.077l0.036,0.077l0.036,0.076l0.037,0.075l0.038,0.075l0.038,0.074l0.038,0.074l0.039,0.073l0.039,0.073l0.039,0.072l0.04,0.072l0.04,0.071l0.04,0.07l0.041,0.07l0.041,0.07l0.041,0.068l0.042,0.069l0.042,0.067l0.042,0.068l0.043,0.066l0.043,0.066l0.043,0.066l0.044,0.065l0.043,0.065l0.043,0.062l0.09,0.128l0.09,0.125l0.091,0.123l0.091,0.12l0.093,0.118l0.093,0.117l0.093,0.114l0.095,0.113l0.095,0.111l0.095,0.108l0.096,0.107l0.096,0.105l0.097,0.103l0.097,0.101l0.097,0.099l0.097,0.097l0.098,0.096l0.097,0.093l0.294,0.278l0.198,0.446l0.089,0.197l0.088,0.194l0.088,0.189l0.087,0.185l0.086,0.18l0.086,0.177l0.086,0.173l0.084,0.168l0.084,0.164l0.084,0.161l0.083,0.156l0.083,0.153l0.081,0.148l0.082,0.145l0.081,0.14l0.08,0.137l0.08,0.133l0.079,0.129l0.078,0.125l0.078,0.121l0.078,0.118l0.077,0.114l0.076,0.11l0.076,0.106l0.075,0.103l0.074,0.099l0.074,0.096l0.073,0.092l0.073,0.088l0.072,0.085l0.071,0.082l0.07,0.078l0.07,0.075l0.069,0.071l0.069,0.069l0.067,0.065l0.07,0.064l0.031,0.028l0.033,0.029l0.033,0.028l0.032,0.028l0.033,0.027l0.032,0.026l0.032,0.026l0.032,0.025l0.032,0.024l0.031,0.023l0.032,0.023l0.031,0.022l0.031,0.022l0.031,0.021l0.031,0.02l0.031,0.02l0.03,0.019l0.031,0.019l0.03,0.018l0.03,0.017l0.03,0.017l0.03,0.016l0.03,0.016l0.03,0.016l0.029,0.014l0.03,0.015l0.03,0.014l0.029,0.013l0.03,0.013l0.029,0.012l0.029,0.012l0.03,0.012l0.029,0.011l0.03,0.011l0.029,0.01l0.03,0.01l0.029,0.01l0.03,0.009l0.03,0.009l0.03,0.008l0.03,0.008l0.03,0.008l0.03,0.007l0.03,0.007l0.031,0.007l0.031,0.006l0.031,0.006l0.031,0.005l0.031,0.006l0.028,0.004l0.068,0.009l0.064,0.007l0.066,0.006l0.068,0.005l0.068,0.003l0.07,0.001l0.071,0l0.073,-0.001l0.074,-0.003l0.075,-0.004l0.077,-0.006l0.079,-0.007l0.08,-0.009l0.082,-0.01l0.084,-0.012l0.085,-0.014l0.086,-0.015l0.089,-0.016l0.09,-0.019l0.091,-0.019l0.094,-0.022l0.095,-0.023l0.096,-0.024l0.099,-0.026l0.099,-0.028l0.102,-0.029l0.103,-0.03l0.105,-0.032l0.106,-0.034l0.108,-0.035l0.11,-0.036l0.111,-0.038l0.113,-0.039l0.114,-0.041l0.116,-0.042l0.117,-0.043l0.12,-0.044l0.121,-0.046l0.121,-0.046l0.251,-0.098l0.256,-0.102l0.263,-0.106l0.269,-0.11l0.275,-0.113l0.572,-0.239l0.598,-0.249l0.31,-0.129l0.317,-0.131l0.323,-0.133l0.325,-0.132l0.085,-0.036l0.082,-0.035l0.084,-0.037l0.086,-0.04l0.088,-0.042l0.089,-0.045l0.092,-0.046l0.093,-0.049l0.095,-0.051l0.097,-0.053l0.098,-0.056l0.1,-0.057l0.101,-0.059l0.102,-0.062l0.104,-0.063l0.105,-0.066l0.106,-0.067l0.107,-0.07l0.109,-0.071l0.109,-0.073l0.111,-0.075l0.112,-0.077l0.112,-0.078l0.113,-0.08l0.115,-0.082l0.115,-0.084l0.116,-0.085l0.116,-0.087l0.117,-0.088l0.118,-0.09l0.119,-0.092l0.119,-0.093l0.119,-0.094l0.12,-0.096l0.121,-0.097l0.121,-0.098l0.121,-0.1l0.122,-0.101l0.122,-0.103l0.123,-0.104l0.122,-0.104l0.123,-0.107l0.123,-0.107l0.124,-0.108l0.123,-0.11l0.124,-0.11l0.123,-0.112l0.124,-0.112l0.123,-0.114l0.124,-0.114l0.123,-0.115l0.124,-0.117l0.123,-0.117l0.123,-0.118l0.123,-0.118l0.123,-0.12l0.122,-0.12l0.123,-0.121l0.121,-0.121l0.122,-0.123l0.121,-0.122l0.121,-0.124l0.12,-0.124l0.12,-0.124l0.119,-0.125l0.119,-0.126l0.118,-0.126l0.118,-0.126l0.117,-0.127l0.116,-0.127l0.116,-0.127l0.115,-0.127l0.114,-0.128l0.113,-0.128l0.113,-0.129l0.112,-0.128l0.111,-0.129l0.11,-0.128l0.109,-0.129l0.108,-0.129l0.107,-0.129l0.106,-0.129l0.105,-0.128l0.104,-0.129l0.102,-0.128l0.102,-0.129l0.101,-0.128l0.099,-0.128l0.098,-0.128l0.097,-0.127l0.095,-0.127l0.094,-0.127l0.093,-0.126l0.091,-0.126l0.09,-0.126l0.088,-0.125l0.087,-0.124l0.086,-0.124l0.083,-0.123l0.083,-0.123l0.08,-0.122l0.079,-0.121l0.078,-0.121l0.075,-0.12l0.074,-0.118l0.072,-0.118l0.071,-0.117l0.068,-0.117l0.067,-0.115l0.064,-0.114l0.063,-0.113l0.061,-0.112l0.059,-0.11l0.057,-0.109l0.054,-0.109l0.053,-0.106l0.051,-0.105l0.048,-0.104l0.047,-0.102l0.044,-0.101l0.042,-0.099l0.04,-0.097l0.037,-0.096l0.036,-0.093l0.033,-0.092l0.031,-0.089l0.028,-0.088l0.028,-0.089l0.028,-0.094l0.028,-0.097l0.027,-0.096l0.027,-0.095l0.026,-0.095l0.025,-0.095l0.024,-0.093l0.024,-0.093l0.023,-0.092l0.022,-0.092l0.021,-0.09l0.02,-0.09l0.02,-0.09l0.018,-0.088l0.018,-0.088l0.017,-0.087l0.017,-0.087l0.015,-0.085l0.014,-0.085l0.014,-0.084l0.013,-0.083l0.012,-0.083l0.011,-0.082l0.01,-0.081l0.01,-0.08l0.008,-0.08l0.008,-0.078l0.006,-0.078l0.006,-0.078l0.005,-0.076l0.005,-0.075l0.003,-0.075l0.002,-0.074l0.002,-0.073l0.001,-0.073l0,-0.071l-0.001,-0.071l-0.002,-0.07l-0.003,-0.069l-0.003,-0.069l-0.005,-0.067l-0.005,-0.067l-0.006,-0.066l-0.007,-0.065l-0.007,-0.065l-0.009,-0.064l-0.009,-0.063l-0.011,-0.062l-0.011,-0.061l-0.011,-0.061l-0.013,-0.06l-0.014,-0.06l-0.014,-0.059l-0.015,-0.058l-0.016,-0.058l-0.017,-0.057l-0.017,-0.056l-0.019,-0.056l-0.019,-0.055l-0.02,-0.055l-0.022,-0.054l-0.021,-0.054l-0.023,-0.053l-0.024,-0.053l-0.025,-0.052l-0.025,-0.052l-0.027,-0.052l-0.027,-0.051l-0.029,-0.051l-0.029,-0.051l-0.031,-0.051l-0.031,-0.05l-0.033,-0.05l-0.033,-0.05l-0.035,-0.049l-0.036,-0.049l-0.037,-0.05l-0.039,-0.049l-0.039,-0.048l-0.041,-0.049l-0.042,-0.049l-0.044,-0.048l-0.045,-0.048l-0.046,-0.049l-0.047,-0.048l-0.049,-0.048l-0.051,-0.048l-0.052,-0.047l-0.053,-0.048l-0.055,-0.048l-0.057,-0.047l-0.058,-0.047l-0.06,-0.048l-0.061,-0.047l-0.063,-0.047l-0.065,-0.047l-0.066,-0.046l-0.068,-0.047l-0.07,-0.046l-0.072,-0.047l-0.073,-0.046l-0.075,-0.045l-0.077,-0.046l-0.079,-0.046l-0.08,-0.045l-0.083,-0.045l-0.084,-0.045l-0.086,-0.044l-0.088,-0.045l-0.09,-0.044l-0.092,-0.044l-0.093,-0.043l-0.096,-0.044l-0.098,-0.043l-0.099,-0.042l-0.102,-0.043l-0.103,-0.042l-0.106,-0.042l-0.107,-0.041l-0.11,-0.041l-0.111,-0.041l-0.113,-0.04l-0.116,-0.04l-0.117,-0.04l-0.12,-0.039l-0.121,-0.039l-0.124,-0.039l-1.167,-0.354l0.116,-1.113l0.002,-0.022l0.002,-0.021l0.001,-0.021l0.001,-0.019l0,-0.017l0,-0.017l-0.001,-0.015l0,-0.014l-0.001,-0.013l-0.001,-0.012l-0.001,-0.011l-0.002,-0.01l-0.001,-0.009l-0.002,-0.009l-0.001,-0.007l-0.002,-0.007l-0.001,-0.006l-0.001,-0.005l-0.002,-0.005l-0.001,-0.004l-0.002,-0.004l-0.001,-0.003l-0.001,-0.004l-0.001,-0.002l-0.002,-0.003l-0.001,-0.003l-0.002,-0.003l-0.001,-0.002l-0.002,-0.003l-0.001,-0.003l-0.002,-0.003l-0.003,-0.004l-0.002,-0.003l-0.003,-0.004l-0.004,-0.004l-0.003,-0.005l-0.004,-0.005l-0.005,-0.005l-0.005,-0.006l-0.006,-0.006l-0.007,-0.006l-0.007,-0.007l-0.008,-0.007l-0.008,-0.008l-0.009,-0.008l-0.01,-0.008l-0.011,-0.009l-0.012,-0.009l-0.008,-0.006l-0.031,-0.022l-0.031,-0.021l-0.034,-0.021l-0.037,-0.022l-0.04,-0.023l-0.044,-0.024l-0.047,-0.024l-0.05,-0.024l-0.054,-0.025l-0.056,-0.025l-0.059,-0.026l-0.062,-0.026l-0.065,-0.026l-0.067,-0.026l-0.07,-0.026l-0.072,-0.026l-0.073,-0.026l-0.158,-0.055l-0.164,-0.055l-0.171,-0.057l-0.362,-0.118l-0.19,-0.062l-0.195,-0.066l-0.197,-0.069l-0.103,-0.036l-0.102,-0.037l-0.103,-0.039l-0.104,-0.039l-0.104,-0.041l-0.492,-0.199l-0.285,-0.452l-0.056,-0.088l-0.058,-0.087l-0.058,-0.087l-0.059,-0.087l-0.06,-0.086l-0.061,-0.086l-0.061,-0.085l-0.063,-0.085l-0.063,-0.085l-0.065,-0.084l-0.065,-0.084l-0.066,-0.084l-0.067,-0.083l-0.068,-0.083l-0.069,-0.083l-0.07,-0.082l-0.07,-0.082l-0.071,-0.082l-0.072,-0.081l-0.073,-0.081l-0.074,-0.08l-0.074,-0.08l-0.076,-0.08l-0.076,-0.079l-0.077,-0.079l-0.077,-0.078l-0.079,-0.078l-0.079,-0.078l-0.08,-0.077l-0.08,-0.077l-0.082,-0.077l-0.082,-0.076l-0.083,-0.076l-0.083,-0.075l-0.085,-0.075l-0.085,-0.074l-0.086,-0.074l-0.086,-0.074l-0.087,-0.073l-0.088,-0.073l-0.088,-0.073l-0.089,-0.072l-0.09,-0.071l-0.091,-0.072l-0.091,-0.07l-0.091,-0.071l-0.092,-0.07l-0.093,-0.069l-0.094,-0.069l-0.094,-0.069l-0.095,-0.068l-0.095,-0.068l-0.096,-0.067l-0.096,-0.067l-0.097,-0.067l-0.098,-0.066l-0.098,-0.065l-0.098,-0.066l-0.099,-0.064l-0.1,-0.064l-0.1,-0.064l-0.101,-0.064l-0.101,-0.063l-0.101,-0.062l-0.102,-0.062l-0.103,-0.061l-0.103,-0.062l-0.103,-0.06l-0.104,-0.06l-0.104,-0.06l-0.105,-0.059l-0.105,-0.059l-0.106,-0.058l-0.105,-0.058l-0.107,-0.057l-0.106,-0.057l-0.107,-0.057l-0.108,-0.056l-0.108,-0.055l-0.108,-0.055l-0.108,-0.055l-0.109,-0.054l-0.109,-0.053l-0.109,-0.053l-0.11,-0.053l-0.11,-0.052l-0.11,-0.052l-0.111,-0.051l-0.111,-0.05l-0.111,-0.05l-0.111,-0.05l-0.112,-0.049l-0.112,-0.049l-0.112,-0.048l-0.11,-0.047l-0.227,-0.095l-0.226,-0.092l-0.226,-0.09l-0.227,-0.088l-0.228,-0.086l-0.228,-0.084l-0.229,-0.082l-0.229,-0.08l-0.229,-0.078l-0.229,-0.075l-0.229,-0.074l-0.23,-0.072l-0.229,-0.07l-0.23,-0.068l-0.229,-0.065l-0.229,-0.064l-0.229,-0.061l-0.228,-0.06l-0.228,-0.057l-0.227,-0.055l-0.227,-0.053l-0.226,-0.052l-0.225,-0.049l-0.225,-0.046l-0.223,-0.045l-0.223,-0.043l-0.221,-0.04l-0.221,-0.039l-0.219,-0.036l-0.218,-0.035l-0.217,-0.032l-0.215,-0.03l-0.214,-0.028l-0.212,-0.025l-0.211,-0.024l-0.209,-0.022l-0.207,-0.019l-0.205,-0.017l-0.203,-0.015l-0.202,-0.013l-0.199,-0.011l-0.197,-0.009l-0.194,-0.007l-0.193,-0.005l-0.19,-0.002l-0.189,-0.001l-0.091,0.001Z" style="fill:#090000;"/><path d="M133.894,15.388c-12.38,-0.943 -21.457,0.561 -29.684,2.214l1.335,3.026c10.12,-1.914 18.702,-2.94 29.613,-2.025l-1.264,-3.215Z" style="fill:#fffefe;stroke-width:2.25px;stroke:#090000;"/><path d="M118.991,1.949c5.315,0 9.63,4.315 9.63,9.63c0,2.344 -0.839,4.493 -2.232,6.164c-2.939,0.444 -10.934,0.784 -13.808,1.022c-1.976,-1.764 -3.221,-4.331 -3.221,-7.186c0,-5.315 4.315,-9.63 9.631,-9.63Z" style="fill:#fff;stroke-width:2.25px;stroke:#090000;"/></g><path d="M102.623,124.999c-6.09,-0.889 -12.514,-2.236 -18.406,-4.051" style="fill:none;stroke-width:1.88px;stroke-linecap:round;stroke-linejoin:round;stroke:#020000;"/></svg>