<?xml version="1.0" standalone="no"?><!DOCTYPE svg PUBLIC "-//W3C//DTD SVG 1.1//EN" "http://www.w3.org/Graphics/SVG/1.1/DTD/svg11.dtd"><svg width="100%" height="100%" viewBox="0 0 175 207" version="1.1" xmlns="http://www.w3.org/2000/svg" xmlns:xlink="http://www.w3.org/1999/xlink" xml:space="preserve" style="fill-rule:evenodd;clip-rule:evenodd;stroke-linecap:round;stroke-linejoin:round;stroke-miterlimit:1.41421;"><g><path d="M89.978,80.462c22.585,2.878 38.584,23.55 35.706,46.134c-2.878,22.585 -23.55,38.584 -46.134,35.706c-22.585,-2.878 -38.584,-23.55 -35.706,-46.134c2.878,-22.585 23.55,-38.584 46.134,-35.706Z" style="fill:none;stroke-width:0.75px;stroke:#020000;"/><path d="M91.511,68.435c29.222,3.723 49.924,30.472 46.2,59.694c-3.723,29.223 -30.472,49.924 -59.694,46.2c-29.223,-3.723 -49.924,-30.471 -46.201,-59.694c3.724,-29.222 30.472,-49.924 59.695,-46.2Z" style="fill:none;stroke-width:0.75px;stroke:#020000;"/><path d="M102.58,34.439l-13.948,-1.777l-1.749,13.719l13.949,1.777l1.748,-13.719Z" style="fill:none;stroke-width:1.88px;stroke:#020000;"/><g><path d="M94.503,47.144c40.715,5.189 69.533,42.659 64.313,83.623c-5.22,40.965 -42.514,70.011 -83.229,64.822c-40.715,-5.188 -69.533,-42.658 -64.313,-83.623c5.22,-40.964 42.514,-70.01 83.229,-64.822Z" style="fill:none;stroke-width:1.87px;stroke-linecap:square;stroke-linejoin:miter;stroke:#020000;"/><path d="M93.68,53.604c37.172,4.737 63.482,38.946 58.716,76.345c-4.766,37.4 -38.814,63.918 -75.986,59.181c-37.172,-4.737 -63.482,-38.946 -58.716,-76.346c4.766,-37.399 38.814,-63.917 75.986,-59.18Z" style="fill:none;stroke-width:1.87px;stroke-linecap:square;stroke-linejoin:miter;stroke:#020000;"/><path d="M95.721,72.867l-2.389,36.145l-8.691,13.08l11.08,-49.225Z" style="fill:none;stroke-width:0.75px;stroke:#020000;"/><path d="M95.544,72.962l-13.268,33.708l2.279,15.531l10.989,-49.239Z" style="fill:none;stroke-width:0.75px;stroke:#020000;"/><path d="M133.064,132.793l-36.125,-2.67l-13.013,-8.793l49.138,11.463Z" style="fill:none;stroke-width:0.75px;stroke:#020000;"/><path d="M132.97,132.615l-33.604,-13.53l-15.548,2.159l49.152,11.371Z" style="fill:none;stroke-width:0.75px;stroke:#020000;"/><path d="M35.694,110.42l36.125,2.67l13.012,8.793l-49.137,-11.463Z" style="fill:none;stroke-width:0.75px;stroke:#020000;"/><path d="M35.787,110.598l33.604,13.53l15.549,-2.159l-49.153,-11.371Z" style="fill:none;stroke-width:0.75px;stroke:#020000;"/><path d="M73.508,170.794l2.49,-36.138l8.728,-13.056l-11.218,49.194Z" style="fill:none;stroke-width:0.75px;stroke:#020000;"/><path d="M73.686,170.699l13.362,-33.671l-2.236,-15.537l-11.126,49.208Z" style="fill:none;stroke-width:0.75px;stroke:#020000;"/><path d="M119.086,100.349l-34.652,21.411l8.833,-12.517l25.819,-8.894Z" style="fill:none;stroke-width:0.75px;stroke:#020000;"/><path d="M119.055,100.298l-33.534,20.743l14.089,-1.969l19.445,-18.774Z" style="fill:none;stroke-width:0.75px;stroke:#020000;"/><g><path d="M62.951,87.475l21.448,34.629l-2.315,-15.144l-19.133,-19.485Z" style="fill:none;stroke-width:0.75px;stroke:#020000;"/><path d="M63.002,87.443l20.746,33.533l-11.728,-8.053l-9.018,-25.48Z" style="fill:none;stroke-width:0.75px;stroke:#020000;"/></g><path d="M106.339,156.504l-21.448,-34.629l2.315,15.144l19.133,19.485Z" style="fill:none;stroke-width:0.75px;stroke:#020000;"/><path d="M106.333,156.449l-21.586,-34.543l12.27,8.371l9.316,26.172Z" style="fill:none;stroke-width:0.75px;stroke:#020000;"/><path d="M50.056,144.079l34.065,-22.332l-8.494,12.75l-25.571,9.582Z" style="fill:none;stroke-width:0.75px;stroke:#020000;"/><path d="M50.085,144.032l34.154,-22.196l-14.658,2.406l-19.496,19.79Z" style="fill:none;stroke-width:0.75px;stroke:#020000;"/><path d="M98.076,14.246c6.529,0.832 11.154,6.808 10.322,13.337c-0.832,6.528 -6.808,11.154 -13.337,10.322c-6.528,-0.832 -11.153,-6.808 -10.322,-13.337c0.832,-6.529 6.808,-11.154 13.337,-10.322Z" style="fill:none;stroke-width:1.13px;stroke:#020000;"/><path d="M98.482,10.485c8.59,1.095 14.676,8.958 13.581,17.549c-1.094,8.59 -8.958,14.676 -17.548,13.581c-8.591,-1.094 -14.676,-8.957 -13.582,-17.548c1.095,-8.591 8.958,-14.676 17.549,-13.582Z" style="fill:none;stroke-width:1.13px;stroke:#020000;"/><path d="M102.405,34.503l-13.653,-1.74l-1.712,13.434l13.653,1.739l1.712,-13.433Z" style="fill:#fff;stroke-width:0.64px;stroke:#020000;"/><path d="M106.628,79.611c0.58,0.074 0.99,0.605 0.916,1.184c-0.073,0.58 -0.604,0.991 -1.184,0.917c-0.579,-0.074 -0.99,-0.605 -0.916,-1.184c0.074,-0.58 0.604,-0.991 1.184,-0.917Z" style="fill:none;stroke-width:0.64px;stroke:#020000;"/><path d="M116.554,86.557c0.58,0.074 0.99,0.605 0.916,1.184c-0.074,0.58 -0.604,0.991 -1.184,0.917c-0.579,-0.074 -0.99,-0.605 -0.916,-1.184c0.074,-0.58 0.604,-0.991 1.184,-0.917Z" style="fill:none;stroke-width:0.64px;stroke:#020000;"/><path d="M129.667,108.067c0.58,0.074 0.99,0.605 0.916,1.184c-0.073,0.58 -0.604,0.991 -1.184,0.917c-0.579,-0.074 -0.99,-0.605 -0.916,-1.184c0.074,-0.58 0.604,-0.991 1.184,-0.917Z" style="fill:none;stroke-width:0.64px;stroke:#020000;"/><path d="M131.368,119.969c0.58,0.074 0.99,0.604 0.916,1.184c-0.073,0.58 -0.604,0.99 -1.184,0.916c-0.579,-0.073 -0.99,-0.604 -0.916,-1.184c0.074,-0.579 0.604,-0.99 1.184,-0.916Z" style="fill:none;stroke-width:0.64px;stroke:#020000;"/><path d="M125.829,142.373c0.58,0.074 0.991,0.605 0.917,1.184c-0.074,0.58 -0.605,0.991 -1.184,0.917c-0.58,-0.074 -0.991,-0.605 -0.917,-1.184c0.074,-0.58 0.605,-0.991 1.184,-0.917Z" style="fill:none;stroke-width:0.64px;stroke:#020000;"/><path d="M118.88,152.223c0.579,0.074 0.99,0.605 0.916,1.184c-0.074,0.58 -0.604,0.991 -1.184,0.917c-0.58,-0.074 -0.99,-0.605 -0.917,-1.184c0.074,-0.58 0.605,-0.991 1.185,-0.917Z" style="fill:none;stroke-width:0.64px;stroke:#020000;"/><path d="M87.587,166.649c0.58,0.074 0.991,0.605 0.917,1.184c-0.074,0.58 -0.605,0.991 -1.184,0.917c-0.58,-0.074 -0.991,-0.605 -0.917,-1.184c0.074,-0.58 0.605,-0.991 1.184,-0.917Z" style="fill:none;stroke-width:0.64px;stroke:#020000;"/><path d="M64.8,162.026c0.579,0.074 0.99,0.605 0.916,1.185c-0.074,0.579 -0.604,0.99 -1.184,0.916c-0.58,-0.074 -0.99,-0.604 -0.917,-1.184c0.074,-0.58 0.605,-0.99 1.185,-0.917Z" style="fill:none;stroke-width:0.64px;stroke:#020000;"/><path d="M54.992,155.231c0.58,0.074 0.99,0.604 0.917,1.184c-0.074,0.58 -0.605,0.99 -1.185,0.917c-0.579,-0.074 -0.99,-0.605 -0.916,-1.185c0.074,-0.579 0.604,-0.99 1.184,-0.916Z" style="fill:none;stroke-width:0.64px;stroke:#020000;"/><path d="M41.078,134.215c0.58,0.074 0.99,0.604 0.916,1.184c-0.074,0.58 -0.604,0.99 -1.184,0.917c-0.579,-0.074 -0.99,-0.605 -0.916,-1.185c0.074,-0.579 0.604,-0.99 1.184,-0.916Z" style="fill:none;stroke-width:0.64px;stroke:#020000;"/><path d="M39.062,122.571c0.579,0.074 0.99,0.605 0.916,1.184c-0.074,0.58 -0.604,0.991 -1.184,0.917c-0.58,-0.074 -0.99,-0.605 -0.916,-1.184c0.073,-0.58 0.604,-0.991 1.184,-0.917Z" style="fill:none;stroke-width:0.64px;stroke:#020000;"/><path d="M43.685,99.779c0.58,0.074 0.99,0.604 0.916,1.184c-0.073,0.58 -0.604,0.99 -1.184,0.917c-0.579,-0.074 -0.99,-0.605 -0.916,-1.185c0.074,-0.579 0.604,-0.99 1.184,-0.916Z" style="fill:none;stroke-width:0.64px;stroke:#020000;"/><path d="M50.57,89.863c0.579,0.074 0.99,0.604 0.916,1.184c-0.074,0.58 -0.604,0.99 -1.184,0.916c-0.58,-0.073 -0.99,-0.604 -0.916,-1.184c0.073,-0.579 0.604,-0.99 1.184,-0.916Z" style="fill:none;stroke-width:0.64px;stroke:#020000;"/><path d="M83.592,74.221c0.58,0.073 0.99,0.604 0.916,1.184c-0.074,0.579 -0.604,0.99 -1.184,0.916c-0.579,-0.074 -0.99,-0.604 -0.916,-1.184c0.074,-0.58 0.604,-0.99 1.184,-0.916Z" style="fill:none;stroke-width:0.64px;stroke:#020000;"/><g transform="matrix(0.192019,-0.981391,0.981391,0.192019,-1136.44,-412.646)"><text x="-290.475px" y="1246.49px" style="font-family:Helvetica;font-size:9.41px;font-weight:700;fill:#000;">N</text></g><g transform="matrix(0.811526,-0.584316,0.584316,0.811526,-38.7049,-498.627)"><text x="-263.938px" y="531.718px" style="font-family:Helvetica;font-size:8.897px;font-weight:700;fill:#000;">N</text></g><g transform="matrix(0.5042,0.863587,-0.863587,0.5042,-336.204,-771.421)"><text x="977.475px" y="42.523px" style="font-family:Helvetica;font-size:8.897px;font-weight:700;fill:#000;">S</text></g><g transform="matrix(0.872022,-0.489466,0.489466,0.872022,68.6221,-379.837)"><text x="-232.255px" y="401.21px" style="font-family:Helvetica;font-size:8.913px;font-weight:700;fill:#000;">E</text></g><g transform="matrix(0.472035,0.88158,-0.88158,0.472035,-284.288,-820.203)"><text x="1002.43px" y="74.907px" style="font-family:Helvetica;font-size:8.913px;font-weight:700;fill:#000;">E</text></g><g transform="matrix(-0.808856,0.588006,-0.588006,-0.808856,2070.25,242.213)"><text x="1531.14px" y="1220.75px" style="font-family:Helvetica;font-size:8.678px;font-weight:700;fill:#000;">S</text></g><g transform="matrix(-0.621866,-0.783124,0.783124,-0.621866,-1163.5,1526.56)"><text x="322.005px" y="1807.33px" style="font-family:Helvetica;font-size:8.678px;font-weight:700;fill:#000;">N</text></g><g transform="matrix(-0.865953,0.500125,-0.500125,-0.865953,2851.25,468.992)"><text x="2218.27px" y="1640.03px" style="font-family:Helvetica;font-size:8.18px;font-weight:700;fill:#000;">W</text></g><g transform="matrix(-0.536492,-0.843906,0.843906,-0.536492,-1743.78,1876.68)"><text x="498.987px" y="2440.65px" style="font-family:Helvetica;font-size:8.18px;font-weight:700;fill:#000;">W</text></g><g transform="matrix(0.98168,0.190539,-0.190539,0.98168,-156.571,62.8885)"><text x="248.051px" y="-43.224px" style="font-family:Helvetica;font-size:9.3px;font-weight:700;fill:#000;">E</text></g><g transform="matrix(-0.200298,0.979735,-0.979735,-0.200298,843.37,-1651.86)"><text x="1888.27px" y="332.719px" style="font-family:Helvetica;font-size:8.555px;font-weight:700;fill:#000;">S</text></g><g transform="matrix(-0.979431,-0.201782,0.201782,-0.979431,664.571,1830.46)"><text x="909.587px" y="1502.08px" style="font-family:Helvetica;font-size:10.176px;font-weight:700;fill:#000;">W</text></g><path d="M79.142,117.471c-1.997,3.947 -1.508,7.241 2.203,9.69l10.607,32.082c0.989,2.945 0.788,5.234 -0.496,6.924c-1.601,1.455 -1.446,2.88 -0.881,4.299l0.561,1.945c0.572,1.296 1.393,1.559 2.579,0.312l1.694,-1.805c1.353,-1.091 2.79,-1.405 4.287,-1.16l2.812,0.636c1.838,0.749 1.949,-0.313 1.847,-1.713l-0.688,-2.775c-0.589,-1.508 -1.159,-2.212 -2.028,-2.152c-2.912,-0.369 -4.618,-2.206 -5.17,-4.88l-6.649,-33.745c1.704,-4.126 0.244,-7.22 -2.429,-9.485c-5.469,-12.367 -9.992,-25.239 -8.117,-32.609l-8.744,-14.264l-0.927,17.06c4.128,3.865 7.48,13.202 9.539,31.64Z" style="fill:#fff;stroke-width:1.88px;stroke:#020000;"/><path d="M84.844,117.411c2.235,0.285 3.825,2.28 3.548,4.452c-0.276,2.172 -2.316,3.704 -4.551,3.419c-2.235,-0.285 -3.825,-2.279 -3.548,-4.451c0.277,-2.172 2.316,-3.704 4.551,-3.42Z" style="fill:#000;stroke-width:0.64px;stroke:#020000;"/></g></g></svg>