<?xml version="1.0" standalone="no"?><!DOCTYPE svg PUBLIC "-//W3C//DTD SVG 1.1//EN" "http://www.w3.org/Graphics/SVG/1.1/DTD/svg11.dtd"><svg width="100%" height="100%" viewBox="0 0 488 230" version="1.1" xmlns="http://www.w3.org/2000/svg" xmlns:xlink="http://www.w3.org/1999/xlink" xml:space="preserve" style="fill-rule:evenodd;clip-rule:evenodd;stroke-linecap:round;stroke-linejoin:round;stroke-miterlimit:1.41421;"><g><path d="M227.615,223.779c0,2.08 -1.688,3.768 -3.769,3.769l-75.53,0c-5.689,-4.953 2.819,-11.495 3.355,-18.204c0.818,-10.253 -8.318,-18.643 -18.588,-18.708l-0.121,0l-0.12,0c-10.27,0.065 -19.971,8.516 -18.588,18.708c1.013,7.458 9.255,13.708 3.442,18.204l-74.742,0c-2.08,0 -3.768,-1.689 -3.768,-3.769l0,-75.22c-4.496,-5.813 -10.746,2.429 -18.205,3.442c-10.191,1.383 -18.642,-8.318 -18.707,-18.588l-0.001,-0.12l0.001,-0.121c0.065,-10.27 8.455,-19.406 18.707,-18.588c6.71,0.536 13.252,9.044 18.205,3.355l0,-75.052c0,-2.08 1.688,-3.768 3.768,-3.768l75.266,0c5.645,-4.491 -2.521,-10.716 -3.528,-18.138c-1.383,-10.191 8.318,-18.642 18.587,-18.707l0.121,-0.001l0.121,0.001c10.27,0.065 19.405,8.455 18.587,18.707c-0.533,6.68 -8.966,13.193 -3.431,18.138l75.169,0c2.081,0 3.769,1.688 3.769,3.768l0,74.416c-5.008,6.918 -11.769,-2.165 -18.708,-2.719c-10.253,-0.818 -18.643,8.318 -18.708,18.588l-0.001,0.121l0.001,0.12c0.065,10.27 8.516,19.971 18.708,18.588c7.741,-1.051 14.181,-9.891 18.708,-2.719l0,74.497Z" style="fill:none;stroke-width:2.63px;stroke:#777;"/></g><g><path d="M485.603,223.779c0,2.08 -1.688,3.768 -3.768,3.769l-75.531,0c-5.688,-4.953 2.82,-11.495 3.355,-18.204c0.818,-10.253 -8.318,-18.643 -18.587,-18.708l-0.121,0l-0.121,0c-10.27,0.065 -19.971,8.516 -18.587,18.708c1.012,7.458 9.254,13.708 3.442,18.204l-74.743,0c-2.08,0 -3.768,-1.689 -3.768,-3.769l0,-75.22c-4.496,-5.813 -10.745,2.429 -18.204,3.442c-10.192,1.383 -18.643,-8.318 -18.708,-18.588l0,-0.12l0,-0.121c0.065,-10.27 8.455,-19.406 18.708,-18.588c6.709,0.536 13.251,9.044 18.204,3.355l0,-75.052c0,-2.08 1.688,-3.768 3.768,-3.768l75.266,0c5.646,-4.491 -2.52,-10.716 -3.528,-18.138c-1.383,-10.191 8.318,-18.642 18.588,-18.707l0.12,-0.001l0.121,0.001c10.27,0.065 19.406,8.455 18.588,18.707c-0.533,6.68 -8.967,13.193 -3.431,18.138l75.169,0c2.08,0 3.768,1.688 3.768,3.768l0,180.892Z" style="fill:none;stroke-width:2.63px;stroke:#767676;"/></g><text x="335.42px" y="93.693px" style="font-family:Roboto;font-size:21.194px;font-weight:300;fill:#2a2a2a;">S<tspan x="352.398px 369.189px 387.647px 405.794px 415.766px 434.265px " y="93.693px 93.693px 93.693px 93.693px 93.693px 93.693px ">TUDIOS</tspan></text><text x="78.313px" y="94.443px" style="font-family:Roboto;font-size:21.194px;font-weight:300;fill:#2a2a2a;">A<tspan x="95.681px 113.764px 130.449px 140.315px 157.187px 173.872px " y="94.443px 94.443px 94.443px 94.443px 94.443px 94.443px ">RTISTS</tspan></text></svg>