<?xml version="1.0" standalone="no"?><!DOCTYPE svg PUBLIC "-//W3C//DTD SVG 1.1//EN" "http://www.w3.org/Graphics/SVG/1.1/DTD/svg11.dtd"><svg width="100%" height="100%" viewBox="0 0 1280 800" version="1.1" xmlns="http://www.w3.org/2000/svg" xmlns:xlink="http://www.w3.org/1999/xlink" xml:space="preserve" style="fill-rule:evenodd;clip-rule:evenodd;stroke-linejoin:bevel;stroke-miterlimit:1.41421;"><path d="M491.154,290.539l56.983,0l0,184.626l-56.983,0l0,-184.626ZM486.595,232.416c0,-9.118 3.229,-16.905 9.688,-23.364c6.458,-6.458 14.245,-9.687 23.363,-9.687c9.117,0 16.905,3.229 23.363,9.687c6.458,6.459 9.687,14.246 9.687,23.364c0,9.117 -3.229,16.905 -9.687,23.363c-6.458,6.458 -14.246,9.687 -23.363,9.687c-9.118,0 -16.905,-3.229 -23.363,-9.687c-6.459,-6.458 -9.688,-14.246 -9.688,-23.363Z" style="fill:#131313;fill-rule:nonzero;"/><path d="M607.738,372.958c0,-29.926 8.348,-54.442 25.042,-73.548c16.694,-19.105 39.819,-28.658 69.374,-28.658c29.679,0 52.927,9.522 69.745,28.566c16.818,19.044 25.227,43.59 25.227,73.64l0,3.895c0,30.174 -8.378,54.752 -25.134,73.734c-16.756,18.982 -39.912,28.473 -69.467,28.473c-29.679,0 -52.896,-9.491 -69.652,-28.473c-16.756,-18.982 -25.135,-43.56 -25.135,-73.734l0,-3.895ZM661.717,376.853c0,18.302 3.215,32.987 9.645,44.055c6.431,11.068 16.818,16.602 31.163,16.602c13.974,0 24.207,-5.565 30.699,-16.695c6.492,-11.129 9.739,-25.783 9.739,-43.962l0,-3.895c0,-17.807 -3.278,-32.337 -9.832,-43.591c-6.554,-11.253 -16.879,-16.879 -30.977,-16.879c-13.974,0 -24.207,5.657 -30.699,16.972c-6.492,11.315 -9.738,25.815 -9.738,43.498l0,3.895Z" style="fill:#131313;fill-rule:nonzero;"/><path d="M487.492,528.743l297.367,0" style="fill:#000;stroke-width:28px;stroke:#000;"/><g><path d="M365.476,611.607l5.976,0c1.088,0 1.984,0.148 2.688,0.444c0.704,0.296 1.26,0.672 1.668,1.128c0.408,0.456 0.692,0.968 0.852,1.536c0.16,0.568 0.24,1.116 0.24,1.644c0,0.544 -0.096,1.068 -0.288,1.572c-0.192,0.504 -0.468,0.96 -0.828,1.368c-0.36,0.408 -0.8,0.752 -1.32,1.032c-0.52,0.28 -1.1,0.452 -1.74,0.516l4.824,7.752l-2.88,0l-4.32,-7.488l-2.568,0l0,7.488l-2.304,0l0,-16.992ZM367.78,619.095l3.024,0c0.448,0 0.892,-0.036 1.332,-0.108c0.44,-0.072 0.832,-0.204 1.176,-0.396c0.344,-0.192 0.62,-0.468 0.828,-0.828c0.208,-0.36 0.312,-0.828 0.312,-1.404c0,-0.576 -0.104,-1.044 -0.312,-1.404c-0.208,-0.36 -0.484,-0.636 -0.828,-0.828c-0.344,-0.192 -0.736,-0.324 -1.176,-0.396c-0.44,-0.072 -0.884,-0.108 -1.332,-0.108l-3.024,0l0,5.472Z" style="fill:#000;fill-rule:nonzero;"/><path d="M381.34,623.703c0,0.496 0.108,0.948 0.324,1.356c0.216,0.408 0.5,0.756 0.852,1.044c0.352,0.288 0.76,0.512 1.224,0.672c0.464,0.16 0.944,0.24 1.44,0.24c0.672,0 1.256,-0.156 1.752,-0.468c0.496,-0.312 0.952,-0.724 1.368,-1.236l1.632,1.248c-1.2,1.552 -2.88,2.328 -5.04,2.328c-0.896,0 -1.708,-0.152 -2.436,-0.456c-0.728,-0.304 -1.344,-0.724 -1.848,-1.26c-0.504,-0.536 -0.892,-1.168 -1.164,-1.896c-0.272,-0.728 -0.408,-1.516 -0.408,-2.364c0,-0.848 0.148,-1.636 0.444,-2.364c0.296,-0.728 0.704,-1.36 1.224,-1.896c0.52,-0.536 1.14,-0.956 1.86,-1.26c0.72,-0.304 1.504,-0.456 2.352,-0.456c1.008,0 1.86,0.176 2.556,0.528c0.696,0.352 1.268,0.812 1.716,1.38c0.448,0.568 0.772,1.208 0.972,1.92c0.2,0.712 0.3,1.436 0.3,2.172l0,0.768l-9.12,0ZM388.156,621.975c-0.016,-0.48 -0.092,-0.92 -0.228,-1.32c-0.136,-0.4 -0.34,-0.748 -0.612,-1.044c-0.272,-0.296 -0.612,-0.528 -1.02,-0.696c-0.408,-0.168 -0.884,-0.252 -1.428,-0.252c-0.528,0 -1.012,0.1 -1.452,0.3c-0.44,0.2 -0.812,0.46 -1.116,0.78c-0.304,0.32 -0.54,0.676 -0.708,1.068c-0.168,0.392 -0.252,0.78 -0.252,1.164l6.816,0Z" style="fill:#000;fill-rule:nonzero;"/><path d="M393.22,618.615c0.608,-0.56 1.312,-0.98 2.112,-1.26c0.8,-0.28 1.6,-0.42 2.4,-0.42c0.832,0 1.548,0.104 2.148,0.312c0.6,0.208 1.092,0.488 1.476,0.84c0.384,0.352 0.668,0.756 0.852,1.212c0.184,0.456 0.276,0.932 0.276,1.428l0,5.808c0,0.4 0.008,0.768 0.024,1.104c0.016,0.336 0.04,0.656 0.072,0.96l-1.92,0c-0.048,-0.576 -0.072,-1.152 -0.072,-1.728l-0.048,0c-0.48,0.736 -1.048,1.256 -1.704,1.56c-0.656,0.304 -1.416,0.456 -2.28,0.456c-0.528,0 -1.032,-0.072 -1.512,-0.216c-0.48,-0.144 -0.9,-0.36 -1.26,-0.648c-0.36,-0.288 -0.644,-0.644 -0.852,-1.068c-0.208,-0.424 -0.312,-0.916 -0.312,-1.476c0,-0.736 0.164,-1.352 0.492,-1.848c0.328,-0.496 0.776,-0.9 1.344,-1.212c0.568,-0.312 1.232,-0.536 1.992,-0.672c0.76,-0.136 1.572,-0.204 2.436,-0.204l1.584,0l0,-0.48c0,-0.288 -0.056,-0.576 -0.168,-0.864c-0.112,-0.288 -0.28,-0.548 -0.504,-0.78c-0.224,-0.232 -0.504,-0.416 -0.84,-0.552c-0.336,-0.136 -0.736,-0.204 -1.2,-0.204c-0.416,0 -0.78,0.04 -1.092,0.12c-0.312,0.08 -0.596,0.18 -0.852,0.3c-0.256,0.12 -0.488,0.26 -0.696,0.42c-0.208,0.16 -0.408,0.312 -0.6,0.456l-1.296,-1.344ZM399.316,623.127c-0.512,0 -1.036,0.028 -1.572,0.084c-0.536,0.056 -1.024,0.164 -1.464,0.324c-0.44,0.16 -0.8,0.384 -1.08,0.672c-0.28,0.288 -0.42,0.656 -0.42,1.104c0,0.656 0.22,1.128 0.66,1.416c0.44,0.288 1.036,0.432 1.788,0.432c0.592,0 1.096,-0.1 1.512,-0.3c0.416,-0.2 0.752,-0.46 1.008,-0.78c0.256,-0.32 0.44,-0.676 0.552,-1.068c0.112,-0.392 0.168,-0.78 0.168,-1.164l0,-0.72l-1.152,0Z" style="fill:#000;fill-rule:nonzero;"/><path d="M411.796,620.079c-0.256,-0.32 -0.572,-0.588 -0.948,-0.804c-0.376,-0.216 -0.836,-0.324 -1.38,-0.324c-0.512,0 -0.956,0.108 -1.332,0.324c-0.376,0.216 -0.564,0.532 -0.564,0.948c0,0.336 0.108,0.608 0.324,0.816c0.216,0.208 0.472,0.376 0.768,0.504c0.296,0.128 0.612,0.224 0.948,0.288c0.336,0.064 0.624,0.12 0.864,0.168c0.464,0.112 0.9,0.248 1.308,0.408c0.408,0.16 0.76,0.368 1.056,0.624c0.296,0.256 0.528,0.568 0.696,0.936c0.168,0.368 0.252,0.816 0.252,1.344c0,0.64 -0.136,1.188 -0.408,1.644c-0.272,0.456 -0.624,0.828 -1.056,1.116c-0.432,0.288 -0.924,0.496 -1.476,0.624c-0.552,0.128 -1.108,0.192 -1.668,0.192c-0.944,0 -1.772,-0.144 -2.484,-0.432c-0.712,-0.288 -1.348,-0.816 -1.908,-1.584l1.632,-1.344c0.352,0.352 0.744,0.664 1.176,0.936c0.432,0.272 0.96,0.408 1.584,0.408c0.272,0 0.548,-0.028 0.828,-0.084c0.28,-0.056 0.528,-0.144 0.744,-0.264c0.216,-0.12 0.392,-0.272 0.528,-0.456c0.136,-0.184 0.204,-0.396 0.204,-0.636c0,-0.32 -0.1,-0.584 -0.3,-0.792c-0.2,-0.208 -0.44,-0.372 -0.72,-0.492c-0.28,-0.12 -0.576,-0.216 -0.888,-0.288c-0.312,-0.072 -0.588,-0.132 -0.828,-0.18c-0.464,-0.112 -0.904,-0.24 -1.32,-0.384c-0.416,-0.144 -0.784,-0.336 -1.104,-0.576c-0.32,-0.24 -0.576,-0.544 -0.768,-0.912c-0.192,-0.368 -0.288,-0.824 -0.288,-1.368c0,-0.592 0.124,-1.108 0.372,-1.548c0.248,-0.44 0.576,-0.804 0.984,-1.092c0.408,-0.288 0.872,-0.504 1.392,-0.648c0.52,-0.144 1.044,-0.216 1.572,-0.216c0.768,0 1.504,0.144 2.208,0.432c0.704,0.288 1.264,0.768 1.68,1.44l-1.68,1.272Z" style="fill:#000;fill-rule:nonzero;"/><path d="M422.572,620.079c-0.256,-0.32 -0.572,-0.588 -0.948,-0.804c-0.376,-0.216 -0.836,-0.324 -1.38,-0.324c-0.512,0 -0.956,0.108 -1.332,0.324c-0.376,0.216 -0.564,0.532 -0.564,0.948c0,0.336 0.108,0.608 0.324,0.816c0.216,0.208 0.472,0.376 0.768,0.504c0.296,0.128 0.612,0.224 0.948,0.288c0.336,0.064 0.624,0.12 0.864,0.168c0.464,0.112 0.9,0.248 1.308,0.408c0.408,0.16 0.76,0.368 1.056,0.624c0.296,0.256 0.528,0.568 0.696,0.936c0.168,0.368 0.252,0.816 0.252,1.344c0,0.64 -0.136,1.188 -0.408,1.644c-0.272,0.456 -0.624,0.828 -1.056,1.116c-0.432,0.288 -0.924,0.496 -1.476,0.624c-0.552,0.128 -1.108,0.192 -1.668,0.192c-0.944,0 -1.772,-0.144 -2.484,-0.432c-0.712,-0.288 -1.348,-0.816 -1.908,-1.584l1.632,-1.344c0.352,0.352 0.744,0.664 1.176,0.936c0.432,0.272 0.96,0.408 1.584,0.408c0.272,0 0.548,-0.028 0.828,-0.084c0.28,-0.056 0.528,-0.144 0.744,-0.264c0.216,-0.12 0.392,-0.272 0.528,-0.456c0.136,-0.184 0.204,-0.396 0.204,-0.636c0,-0.32 -0.1,-0.584 -0.3,-0.792c-0.2,-0.208 -0.44,-0.372 -0.72,-0.492c-0.28,-0.12 -0.576,-0.216 -0.888,-0.288c-0.312,-0.072 -0.588,-0.132 -0.828,-0.18c-0.464,-0.112 -0.904,-0.24 -1.32,-0.384c-0.416,-0.144 -0.784,-0.336 -1.104,-0.576c-0.32,-0.24 -0.576,-0.544 -0.768,-0.912c-0.192,-0.368 -0.288,-0.824 -0.288,-1.368c0,-0.592 0.124,-1.108 0.372,-1.548c0.248,-0.44 0.576,-0.804 0.984,-1.092c0.408,-0.288 0.872,-0.504 1.392,-0.648c0.52,-0.144 1.044,-0.216 1.572,-0.216c0.768,0 1.504,0.144 2.208,0.432c0.704,0.288 1.264,0.768 1.68,1.44l-1.68,1.272Z" style="fill:#000;fill-rule:nonzero;"/><path d="M437.38,628.599l-2.16,0l0,-1.752l-0.048,0c-0.272,0.608 -0.744,1.1 -1.416,1.476c-0.672,0.376 -1.448,0.564 -2.328,0.564c-0.56,0 -1.088,-0.084 -1.584,-0.252c-0.496,-0.168 -0.932,-0.428 -1.308,-0.78c-0.376,-0.352 -0.676,-0.804 -0.9,-1.356c-0.224,-0.552 -0.336,-1.204 -0.336,-1.956l0,-7.32l2.16,0l0,6.72c0,0.528 0.072,0.98 0.216,1.356c0.144,0.376 0.336,0.68 0.576,0.912c0.24,0.232 0.516,0.4 0.828,0.504c0.312,0.104 0.636,0.156 0.972,0.156c0.448,0 0.864,-0.072 1.248,-0.216c0.384,-0.144 0.72,-0.372 1.008,-0.684c0.288,-0.312 0.512,-0.708 0.672,-1.188c0.16,-0.48 0.24,-1.048 0.24,-1.704l0,-5.856l2.16,0l0,11.376Z" style="fill:#000;fill-rule:nonzero;"/><path d="M440.764,617.223l2.16,0l0,1.752l0.048,0c0.144,-0.304 0.336,-0.58 0.576,-0.828c0.24,-0.248 0.508,-0.46 0.804,-0.636c0.296,-0.176 0.62,-0.316 0.972,-0.42c0.352,-0.104 0.704,-0.156 1.056,-0.156c0.352,0 0.672,0.048 0.96,0.144l-0.096,2.328c-0.176,-0.048 -0.352,-0.088 -0.528,-0.12c-0.176,-0.032 -0.352,-0.048 -0.528,-0.048c-1.056,0 -1.864,0.296 -2.424,0.888c-0.56,0.592 -0.84,1.512 -0.84,2.76l0,5.712l-2.16,0l0,-11.376Z" style="fill:#000;fill-rule:nonzero;"/><path d="M449.932,617.223l2.16,0l0,11.376l-2.16,0l0,-11.376ZM449.428,613.143c0,-0.432 0.156,-0.804 0.468,-1.116c0.312,-0.312 0.684,-0.468 1.116,-0.468c0.432,0 0.804,0.156 1.116,0.468c0.312,0.312 0.468,0.684 0.468,1.116c0,0.432 -0.156,0.804 -0.468,1.116c-0.312,0.312 -0.684,0.468 -1.116,0.468c-0.432,0 -0.804,-0.156 -1.116,-0.468c-0.312,-0.312 -0.468,-0.684 -0.468,-1.116Z" style="fill:#000;fill-rule:nonzero;"/><path d="M455.644,617.223l2.16,0l0,1.752l0.048,0c0.272,-0.608 0.744,-1.1 1.416,-1.476c0.672,-0.376 1.448,-0.564 2.328,-0.564c0.544,0 1.068,0.084 1.572,0.252c0.504,0.168 0.944,0.428 1.32,0.78c0.376,0.352 0.676,0.804 0.9,1.356c0.224,0.552 0.336,1.204 0.336,1.956l0,7.32l-2.16,0l0,-6.72c0,-0.528 -0.072,-0.98 -0.216,-1.356c-0.144,-0.376 -0.336,-0.68 -0.576,-0.912c-0.24,-0.232 -0.516,-0.4 -0.828,-0.504c-0.312,-0.104 -0.636,-0.156 -0.972,-0.156c-0.448,0 -0.864,0.072 -1.248,0.216c-0.384,0.144 -0.72,0.372 -1.008,0.684c-0.288,0.312 -0.512,0.708 -0.672,1.188c-0.16,0.48 -0.24,1.048 -0.24,1.704l0,5.856l-2.16,0l0,-11.376Z" style="fill:#000;fill-rule:nonzero;"/><path d="M480.508,628.503c0,0.864 -0.148,1.652 -0.444,2.364c-0.296,0.712 -0.716,1.328 -1.26,1.848c-0.544,0.52 -1.2,0.924 -1.968,1.212c-0.768,0.288 -1.616,0.432 -2.544,0.432c-1.088,0 -2.084,-0.152 -2.988,-0.456c-0.904,-0.304 -1.764,-0.832 -2.58,-1.584l1.464,-1.824c0.56,0.608 1.168,1.068 1.824,1.38c0.656,0.312 1.4,0.468 2.232,0.468c0.8,0 1.464,-0.116 1.992,-0.348c0.528,-0.232 0.948,-0.532 1.26,-0.9c0.312,-0.368 0.532,-0.788 0.66,-1.26c0.128,-0.472 0.192,-0.948 0.192,-1.428l0,-1.68l-0.072,0c-0.416,0.688 -0.98,1.196 -1.692,1.524c-0.712,0.328 -1.46,0.492 -2.244,0.492c-0.832,0 -1.604,-0.148 -2.316,-0.444c-0.712,-0.296 -1.324,-0.704 -1.836,-1.224c-0.512,-0.52 -0.912,-1.136 -1.2,-1.848c-0.288,-0.712 -0.432,-1.484 -0.432,-2.316c0,-0.832 0.136,-1.612 0.408,-2.34c0.272,-0.728 0.66,-1.364 1.164,-1.908c0.504,-0.544 1.112,-0.968 1.824,-1.272c0.712,-0.304 1.508,-0.456 2.388,-0.456c0.768,0 1.516,0.168 2.244,0.504c0.728,0.336 1.3,0.808 1.716,1.416l0.048,0l0,-1.632l2.16,0l0,11.28ZM474.604,618.951c-0.576,0 -1.096,0.1 -1.56,0.3c-0.464,0.2 -0.856,0.472 -1.176,0.816c-0.32,0.344 -0.568,0.76 -0.744,1.248c-0.176,0.488 -0.264,1.02 -0.264,1.596c0,1.152 0.336,2.076 1.008,2.772c0.672,0.696 1.584,1.044 2.736,1.044c1.152,0 2.064,-0.348 2.736,-1.044c0.672,-0.696 1.008,-1.62 1.008,-2.772c0,-0.576 -0.088,-1.108 -0.264,-1.596c-0.176,-0.488 -0.424,-0.904 -0.744,-1.248c-0.32,-0.344 -0.712,-0.616 -1.176,-0.816c-0.464,-0.2 -0.984,-0.3 -1.56,-0.3Z" style="fill:#000;fill-rule:nonzero;"/><rect x="484.06" y="610.455" width="2.16" height="18.144" style="fill:#000;fill-rule:nonzero;"/><path d="M488.404,617.223l2.496,0l3.384,8.88l0.048,0l3.216,-8.88l2.328,0l-5.4,13.824c-0.192,0.496 -0.392,0.948 -0.6,1.356c-0.208,0.408 -0.456,0.756 -0.744,1.044c-0.288,0.288 -0.636,0.512 -1.044,0.672c-0.408,0.16 -0.908,0.24 -1.5,0.24c-0.32,0 -0.644,-0.02 -0.972,-0.06c-0.328,-0.04 -0.644,-0.124 -0.948,-0.252l0.264,-1.968c0.432,0.176 0.864,0.264 1.296,0.264c0.336,0 0.62,-0.044 0.852,-0.132c0.232,-0.088 0.432,-0.216 0.6,-0.384c0.168,-0.168 0.308,-0.364 0.42,-0.588c0.112,-0.224 0.224,-0.48 0.336,-0.768l0.696,-1.8l-4.728,-11.448Z" style="fill:#000;fill-rule:nonzero;"/><path d="M508.852,617.223l2.16,0l0,11.376l-2.16,0l0,-11.376ZM508.348,613.143c0,-0.432 0.156,-0.804 0.468,-1.116c0.312,-0.312 0.684,-0.468 1.116,-0.468c0.432,0 0.804,0.156 1.116,0.468c0.312,0.312 0.468,0.684 0.468,1.116c0,0.432 -0.156,0.804 -0.468,1.116c-0.312,0.312 -0.684,0.468 -1.116,0.468c-0.432,0 -0.804,-0.156 -1.116,-0.468c-0.312,-0.312 -0.468,-0.684 -0.468,-1.116Z" style="fill:#000;fill-rule:nonzero;"/><path d="M514.564,617.223l2.16,0l0,1.752l0.048,0c0.272,-0.608 0.744,-1.1 1.416,-1.476c0.672,-0.376 1.448,-0.564 2.328,-0.564c0.544,0 1.068,0.084 1.572,0.252c0.504,0.168 0.944,0.428 1.32,0.78c0.376,0.352 0.676,0.804 0.9,1.356c0.224,0.552 0.336,1.204 0.336,1.956l0,7.32l-2.16,0l0,-6.72c0,-0.528 -0.072,-0.98 -0.216,-1.356c-0.144,-0.376 -0.336,-0.68 -0.576,-0.912c-0.24,-0.232 -0.516,-0.4 -0.828,-0.504c-0.312,-0.104 -0.636,-0.156 -0.972,-0.156c-0.448,0 -0.864,0.072 -1.248,0.216c-0.384,0.144 -0.72,0.372 -1.008,0.684c-0.288,0.312 -0.512,0.708 -0.672,1.188c-0.16,0.48 -0.24,1.048 -0.24,1.704l0,5.856l-2.16,0l0,-11.376Z" style="fill:#000;fill-rule:nonzero;"/><path d="M529.66,623.703c0,0.496 0.108,0.948 0.324,1.356c0.216,0.408 0.5,0.756 0.852,1.044c0.352,0.288 0.76,0.512 1.224,0.672c0.464,0.16 0.944,0.24 1.44,0.24c0.672,0 1.256,-0.156 1.752,-0.468c0.496,-0.312 0.952,-0.724 1.368,-1.236l1.632,1.248c-1.2,1.552 -2.88,2.328 -5.04,2.328c-0.896,0 -1.708,-0.152 -2.436,-0.456c-0.728,-0.304 -1.344,-0.724 -1.848,-1.26c-0.504,-0.536 -0.892,-1.168 -1.164,-1.896c-0.272,-0.728 -0.408,-1.516 -0.408,-2.364c0,-0.848 0.148,-1.636 0.444,-2.364c0.296,-0.728 0.704,-1.36 1.224,-1.896c0.52,-0.536 1.14,-0.956 1.86,-1.26c0.72,-0.304 1.504,-0.456 2.352,-0.456c1.008,0 1.86,0.176 2.556,0.528c0.696,0.352 1.268,0.812 1.716,1.38c0.448,0.568 0.772,1.208 0.972,1.92c0.2,0.712 0.3,1.436 0.3,2.172l0,0.768l-9.12,0ZM536.476,621.975c-0.016,-0.48 -0.092,-0.92 -0.228,-1.32c-0.136,-0.4 -0.34,-0.748 -0.612,-1.044c-0.272,-0.296 -0.612,-0.528 -1.02,-0.696c-0.408,-0.168 -0.884,-0.252 -1.428,-0.252c-0.528,0 -1.012,0.1 -1.452,0.3c-0.44,0.2 -0.812,0.46 -1.116,0.78c-0.304,0.32 -0.54,0.676 -0.708,1.068c-0.168,0.392 -0.252,0.78 -0.252,1.164l6.816,0Z" style="fill:#000;fill-rule:nonzero;"/><path d="M544.612,622.527l-4.032,-5.304l2.784,0l2.76,4.032l2.712,-4.032l2.616,0l-3.888,5.304l4.608,6.072l-2.784,0l-3.36,-4.776l-3.36,4.776l-2.664,0l4.608,-6.072Z" style="fill:#000;fill-rule:nonzero;"/><path d="M554.068,617.223l2.16,0l0,1.632l0.048,0c0.416,-0.608 0.988,-1.08 1.716,-1.416c0.728,-0.336 1.476,-0.504 2.244,-0.504c0.88,0 1.676,0.152 2.388,0.456c0.712,0.304 1.32,0.728 1.824,1.272c0.504,0.544 0.892,1.18 1.164,1.908c0.272,0.728 0.408,1.508 0.408,2.34c0,0.848 -0.136,1.636 -0.408,2.364c-0.272,0.728 -0.66,1.36 -1.164,1.896c-0.504,0.536 -1.112,0.956 -1.824,1.26c-0.712,0.304 -1.508,0.456 -2.388,0.456c-0.816,0 -1.584,-0.172 -2.304,-0.516c-0.72,-0.344 -1.272,-0.812 -1.656,-1.404l-0.048,0l0,8.4l-2.16,0l0,-18.144ZM559.972,618.951c-0.576,0 -1.096,0.1 -1.56,0.3c-0.464,0.2 -0.856,0.472 -1.176,0.816c-0.32,0.344 -0.568,0.76 -0.744,1.248c-0.176,0.488 -0.264,1.02 -0.264,1.596c0,0.576 0.088,1.108 0.264,1.596c0.176,0.488 0.424,0.904 0.744,1.248c0.32,0.344 0.712,0.616 1.176,0.816c0.464,0.2 0.984,0.3 1.56,0.3c0.576,0 1.096,-0.1 1.56,-0.3c0.464,-0.2 0.856,-0.472 1.176,-0.816c0.32,-0.344 0.568,-0.76 0.744,-1.248c0.176,-0.488 0.264,-1.02 0.264,-1.596c0,-0.576 -0.088,-1.108 -0.264,-1.596c-0.176,-0.488 -0.424,-0.904 -0.744,-1.248c-0.32,-0.344 -0.712,-0.616 -1.176,-0.816c-0.464,-0.2 -0.984,-0.3 -1.56,-0.3Z" style="fill:#000;fill-rule:nonzero;"/><path d="M570.484,623.703c0,0.496 0.108,0.948 0.324,1.356c0.216,0.408 0.5,0.756 0.852,1.044c0.352,0.288 0.76,0.512 1.224,0.672c0.464,0.16 0.944,0.24 1.44,0.24c0.672,0 1.256,-0.156 1.752,-0.468c0.496,-0.312 0.952,-0.724 1.368,-1.236l1.632,1.248c-1.2,1.552 -2.88,2.328 -5.04,2.328c-0.896,0 -1.708,-0.152 -2.436,-0.456c-0.728,-0.304 -1.344,-0.724 -1.848,-1.26c-0.504,-0.536 -0.892,-1.168 -1.164,-1.896c-0.272,-0.728 -0.408,-1.516 -0.408,-2.364c0,-0.848 0.148,-1.636 0.444,-2.364c0.296,-0.728 0.704,-1.36 1.224,-1.896c0.52,-0.536 1.14,-0.956 1.86,-1.26c0.72,-0.304 1.504,-0.456 2.352,-0.456c1.008,0 1.86,0.176 2.556,0.528c0.696,0.352 1.268,0.812 1.716,1.38c0.448,0.568 0.772,1.208 0.972,1.92c0.2,0.712 0.3,1.436 0.3,2.172l0,0.768l-9.12,0ZM577.3,621.975c-0.016,-0.48 -0.092,-0.92 -0.228,-1.32c-0.136,-0.4 -0.34,-0.748 -0.612,-1.044c-0.272,-0.296 -0.612,-0.528 -1.02,-0.696c-0.408,-0.168 -0.884,-0.252 -1.428,-0.252c-0.528,0 -1.012,0.1 -1.452,0.3c-0.44,0.2 -0.812,0.46 -1.116,0.78c-0.304,0.32 -0.54,0.676 -0.708,1.068c-0.168,0.392 -0.252,0.78 -0.252,1.164l6.816,0Z" style="fill:#000;fill-rule:nonzero;"/><path d="M582.316,617.223l2.16,0l0,1.752l0.048,0c0.272,-0.608 0.744,-1.1 1.416,-1.476c0.672,-0.376 1.448,-0.564 2.328,-0.564c0.544,0 1.068,0.084 1.572,0.252c0.504,0.168 0.944,0.428 1.32,0.78c0.376,0.352 0.676,0.804 0.9,1.356c0.224,0.552 0.336,1.204 0.336,1.956l0,7.32l-2.16,0l0,-6.72c0,-0.528 -0.072,-0.98 -0.216,-1.356c-0.144,-0.376 -0.336,-0.68 -0.576,-0.912c-0.24,-0.232 -0.516,-0.4 -0.828,-0.504c-0.312,-0.104 -0.636,-0.156 -0.972,-0.156c-0.448,0 -0.864,0.072 -1.248,0.216c-0.384,0.144 -0.72,0.372 -1.008,0.684c-0.288,0.312 -0.512,0.708 -0.672,1.188c-0.16,0.48 -0.24,1.048 -0.24,1.704l0,5.856l-2.16,0l0,-11.376Z" style="fill:#000;fill-rule:nonzero;"/><path d="M601.828,620.079c-0.256,-0.32 -0.572,-0.588 -0.948,-0.804c-0.376,-0.216 -0.836,-0.324 -1.38,-0.324c-0.512,0 -0.956,0.108 -1.332,0.324c-0.376,0.216 -0.564,0.532 -0.564,0.948c0,0.336 0.108,0.608 0.324,0.816c0.216,0.208 0.472,0.376 0.768,0.504c0.296,0.128 0.612,0.224 0.948,0.288c0.336,0.064 0.624,0.12 0.864,0.168c0.464,0.112 0.9,0.248 1.308,0.408c0.408,0.16 0.76,0.368 1.056,0.624c0.296,0.256 0.528,0.568 0.696,0.936c0.168,0.368 0.252,0.816 0.252,1.344c0,0.64 -0.136,1.188 -0.408,1.644c-0.272,0.456 -0.624,0.828 -1.056,1.116c-0.432,0.288 -0.924,0.496 -1.476,0.624c-0.552,0.128 -1.108,0.192 -1.668,0.192c-0.944,0 -1.772,-0.144 -2.484,-0.432c-0.712,-0.288 -1.348,-0.816 -1.908,-1.584l1.632,-1.344c0.352,0.352 0.744,0.664 1.176,0.936c0.432,0.272 0.96,0.408 1.584,0.408c0.272,0 0.548,-0.028 0.828,-0.084c0.28,-0.056 0.528,-0.144 0.744,-0.264c0.216,-0.12 0.392,-0.272 0.528,-0.456c0.136,-0.184 0.204,-0.396 0.204,-0.636c0,-0.32 -0.1,-0.584 -0.3,-0.792c-0.2,-0.208 -0.44,-0.372 -0.72,-0.492c-0.28,-0.12 -0.576,-0.216 -0.888,-0.288c-0.312,-0.072 -0.588,-0.132 -0.828,-0.18c-0.464,-0.112 -0.904,-0.24 -1.32,-0.384c-0.416,-0.144 -0.784,-0.336 -1.104,-0.576c-0.32,-0.24 -0.576,-0.544 -0.768,-0.912c-0.192,-0.368 -0.288,-0.824 -0.288,-1.368c0,-0.592 0.124,-1.108 0.372,-1.548c0.248,-0.44 0.576,-0.804 0.984,-1.092c0.408,-0.288 0.872,-0.504 1.392,-0.648c0.52,-0.144 1.044,-0.216 1.572,-0.216c0.768,0 1.504,0.144 2.208,0.432c0.704,0.288 1.264,0.768 1.68,1.44l-1.68,1.272Z" style="fill:#000;fill-rule:nonzero;"/><path d="M606.724,617.223l2.16,0l0,11.376l-2.16,0l0,-11.376ZM606.22,613.143c0,-0.432 0.156,-0.804 0.468,-1.116c0.312,-0.312 0.684,-0.468 1.116,-0.468c0.432,0 0.804,0.156 1.116,0.468c0.312,0.312 0.468,0.684 0.468,1.116c0,0.432 -0.156,0.804 -0.468,1.116c-0.312,0.312 -0.684,0.468 -1.116,0.468c-0.432,0 -0.804,-0.156 -1.116,-0.468c-0.312,-0.312 -0.468,-0.684 -0.468,-1.116Z" style="fill:#000;fill-rule:nonzero;"/><path d="M611.068,617.223l2.496,0l3.408,8.712l3.264,-8.712l2.304,0l-4.464,11.376l-2.376,0l-4.632,-11.376Z" style="fill:#000;fill-rule:nonzero;"/><path d="M626.188,623.703c0,0.496 0.108,0.948 0.324,1.356c0.216,0.408 0.5,0.756 0.852,1.044c0.352,0.288 0.76,0.512 1.224,0.672c0.464,0.16 0.944,0.24 1.44,0.24c0.672,0 1.256,-0.156 1.752,-0.468c0.496,-0.312 0.952,-0.724 1.368,-1.236l1.632,1.248c-1.2,1.552 -2.88,2.328 -5.04,2.328c-0.896,0 -1.708,-0.152 -2.436,-0.456c-0.728,-0.304 -1.344,-0.724 -1.848,-1.26c-0.504,-0.536 -0.892,-1.168 -1.164,-1.896c-0.272,-0.728 -0.408,-1.516 -0.408,-2.364c0,-0.848 0.148,-1.636 0.444,-2.364c0.296,-0.728 0.704,-1.36 1.224,-1.896c0.52,-0.536 1.14,-0.956 1.86,-1.26c0.72,-0.304 1.504,-0.456 2.352,-0.456c1.008,0 1.86,0.176 2.556,0.528c0.696,0.352 1.268,0.812 1.716,1.38c0.448,0.568 0.772,1.208 0.972,1.92c0.2,0.712 0.3,1.436 0.3,2.172l0,0.768l-9.12,0ZM633.004,621.975c-0.016,-0.48 -0.092,-0.92 -0.228,-1.32c-0.136,-0.4 -0.34,-0.748 -0.612,-1.044c-0.272,-0.296 -0.612,-0.528 -1.02,-0.696c-0.408,-0.168 -0.884,-0.252 -1.428,-0.252c-0.528,0 -1.012,0.1 -1.452,0.3c-0.44,0.2 -0.812,0.46 -1.116,0.78c-0.304,0.32 -0.54,0.676 -0.708,1.068c-0.168,0.392 -0.252,0.78 -0.252,1.164l6.816,0Z" style="fill:#000;fill-rule:nonzero;"/><path d="M639.724,628.743c-0.432,0 -0.804,-0.156 -1.116,-0.468c-0.312,-0.312 -0.468,-0.684 -0.468,-1.116c0,-0.432 0.156,-0.804 0.468,-1.116c0.312,-0.312 0.684,-0.468 1.116,-0.468c0.432,0 0.804,0.156 1.116,0.468c0.312,0.312 0.468,0.684 0.468,1.116c0,0.432 -0.156,0.804 -0.468,1.116c-0.312,0.312 -0.684,0.468 -1.116,0.468Z" style="fill:#000;fill-rule:nonzero;"/><rect x="652.156" y="611.607" width="2.304" height="16.992" style="fill:#000;fill-rule:nonzero;"/><path d="M658.396,617.223l2.16,0l0,1.752l0.048,0c0.272,-0.608 0.744,-1.1 1.416,-1.476c0.672,-0.376 1.448,-0.564 2.328,-0.564c0.544,0 1.068,0.084 1.572,0.252c0.504,0.168 0.944,0.428 1.32,0.78c0.376,0.352 0.676,0.804 0.9,1.356c0.224,0.552 0.336,1.204 0.336,1.956l0,7.32l-2.16,0l0,-6.72c0,-0.528 -0.072,-0.98 -0.216,-1.356c-0.144,-0.376 -0.336,-0.68 -0.576,-0.912c-0.24,-0.232 -0.516,-0.4 -0.828,-0.504c-0.312,-0.104 -0.636,-0.156 -0.972,-0.156c-0.448,0 -0.864,0.072 -1.248,0.216c-0.384,0.144 -0.72,0.372 -1.008,0.684c-0.288,0.312 -0.512,0.708 -0.672,1.188c-0.16,0.48 -0.24,1.048 -0.24,1.704l0,5.856l-2.16,0l0,-11.376Z" style="fill:#000;fill-rule:nonzero;"/><path d="M683.26,628.599l-2.16,0l0,-1.632l-0.048,0c-0.416,0.608 -0.988,1.08 -1.716,1.416c-0.728,0.336 -1.476,0.504 -2.244,0.504c-0.88,0 -1.676,-0.152 -2.388,-0.456c-0.712,-0.304 -1.32,-0.728 -1.824,-1.272c-0.504,-0.544 -0.892,-1.176 -1.164,-1.896c-0.272,-0.72 -0.408,-1.504 -0.408,-2.352c0,-0.848 0.136,-1.636 0.408,-2.364c0.272,-0.728 0.66,-1.36 1.164,-1.896c0.504,-0.536 1.112,-0.956 1.824,-1.26c0.712,-0.304 1.508,-0.456 2.388,-0.456c0.816,0 1.584,0.172 2.304,0.516c0.72,0.344 1.272,0.812 1.656,1.404l0.048,0l0,-8.4l2.16,0l0,18.144ZM677.356,626.871c0.576,0 1.096,-0.1 1.56,-0.3c0.464,-0.2 0.856,-0.472 1.176,-0.816c0.32,-0.344 0.568,-0.76 0.744,-1.248c0.176,-0.488 0.264,-1.02 0.264,-1.596c0,-0.576 -0.088,-1.108 -0.264,-1.596c-0.176,-0.488 -0.424,-0.904 -0.744,-1.248c-0.32,-0.344 -0.712,-0.616 -1.176,-0.816c-0.464,-0.2 -0.984,-0.3 -1.56,-0.3c-0.576,0 -1.096,0.1 -1.56,0.3c-0.464,0.2 -0.856,0.472 -1.176,0.816c-0.32,0.344 -0.568,0.76 -0.744,1.248c-0.176,0.488 -0.264,1.02 -0.264,1.596c0,0.576 0.088,1.108 0.264,1.596c0.176,0.488 0.424,0.904 0.744,1.248c0.32,0.344 0.712,0.616 1.176,0.816c0.464,0.2 0.984,0.3 1.56,0.3Z" style="fill:#000;fill-rule:nonzero;"/><path d="M688.276,623.703c0,0.496 0.108,0.948 0.324,1.356c0.216,0.408 0.5,0.756 0.852,1.044c0.352,0.288 0.76,0.512 1.224,0.672c0.464,0.16 0.944,0.24 1.44,0.24c0.672,0 1.256,-0.156 1.752,-0.468c0.496,-0.312 0.952,-0.724 1.368,-1.236l1.632,1.248c-1.2,1.552 -2.88,2.328 -5.04,2.328c-0.896,0 -1.708,-0.152 -2.436,-0.456c-0.728,-0.304 -1.344,-0.724 -1.848,-1.26c-0.504,-0.536 -0.892,-1.168 -1.164,-1.896c-0.272,-0.728 -0.408,-1.516 -0.408,-2.364c0,-0.848 0.148,-1.636 0.444,-2.364c0.296,-0.728 0.704,-1.36 1.224,-1.896c0.52,-0.536 1.14,-0.956 1.86,-1.26c0.72,-0.304 1.504,-0.456 2.352,-0.456c1.008,0 1.86,0.176 2.556,0.528c0.696,0.352 1.268,0.812 1.716,1.38c0.448,0.568 0.772,1.208 0.972,1.92c0.2,0.712 0.3,1.436 0.3,2.172l0,0.768l-9.12,0ZM695.092,621.975c-0.016,-0.48 -0.092,-0.92 -0.228,-1.32c-0.136,-0.4 -0.34,-0.748 -0.612,-1.044c-0.272,-0.296 -0.612,-0.528 -1.02,-0.696c-0.408,-0.168 -0.884,-0.252 -1.428,-0.252c-0.528,0 -1.012,0.1 -1.452,0.3c-0.44,0.2 -0.812,0.46 -1.116,0.78c-0.304,0.32 -0.54,0.676 -0.708,1.068c-0.168,0.392 -0.252,0.78 -0.252,1.164l6.816,0Z" style="fill:#000;fill-rule:nonzero;"/><path d="M700.108,617.223l2.16,0l0,1.632l0.048,0c0.416,-0.608 0.988,-1.08 1.716,-1.416c0.728,-0.336 1.476,-0.504 2.244,-0.504c0.88,0 1.676,0.152 2.388,0.456c0.712,0.304 1.32,0.728 1.824,1.272c0.504,0.544 0.892,1.18 1.164,1.908c0.272,0.728 0.408,1.508 0.408,2.34c0,0.848 -0.136,1.636 -0.408,2.364c-0.272,0.728 -0.66,1.36 -1.164,1.896c-0.504,0.536 -1.112,0.956 -1.824,1.26c-0.712,0.304 -1.508,0.456 -2.388,0.456c-0.816,0 -1.584,-0.172 -2.304,-0.516c-0.72,-0.344 -1.272,-0.812 -1.656,-1.404l-0.048,0l0,8.4l-2.16,0l0,-18.144ZM706.012,618.951c-0.576,0 -1.096,0.1 -1.56,0.3c-0.464,0.2 -0.856,0.472 -1.176,0.816c-0.32,0.344 -0.568,0.76 -0.744,1.248c-0.176,0.488 -0.264,1.02 -0.264,1.596c0,0.576 0.088,1.108 0.264,1.596c0.176,0.488 0.424,0.904 0.744,1.248c0.32,0.344 0.712,0.616 1.176,0.816c0.464,0.2 0.984,0.3 1.56,0.3c0.576,0 1.096,-0.1 1.56,-0.3c0.464,-0.2 0.856,-0.472 1.176,-0.816c0.32,-0.344 0.568,-0.76 0.744,-1.248c0.176,-0.488 0.264,-1.02 0.264,-1.596c0,-0.576 -0.088,-1.108 -0.264,-1.596c-0.176,-0.488 -0.424,-0.904 -0.744,-1.248c-0.32,-0.344 -0.712,-0.616 -1.176,-0.816c-0.464,-0.2 -0.984,-0.3 -1.56,-0.3Z" style="fill:#000;fill-rule:nonzero;"/><path d="M716.524,623.703c0,0.496 0.108,0.948 0.324,1.356c0.216,0.408 0.5,0.756 0.852,1.044c0.352,0.288 0.76,0.512 1.224,0.672c0.464,0.16 0.944,0.24 1.44,0.24c0.672,0 1.256,-0.156 1.752,-0.468c0.496,-0.312 0.952,-0.724 1.368,-1.236l1.632,1.248c-1.2,1.552 -2.88,2.328 -5.04,2.328c-0.896,0 -1.708,-0.152 -2.436,-0.456c-0.728,-0.304 -1.344,-0.724 -1.848,-1.26c-0.504,-0.536 -0.892,-1.168 -1.164,-1.896c-0.272,-0.728 -0.408,-1.516 -0.408,-2.364c0,-0.848 0.148,-1.636 0.444,-2.364c0.296,-0.728 0.704,-1.36 1.224,-1.896c0.52,-0.536 1.14,-0.956 1.86,-1.26c0.72,-0.304 1.504,-0.456 2.352,-0.456c1.008,0 1.86,0.176 2.556,0.528c0.696,0.352 1.268,0.812 1.716,1.38c0.448,0.568 0.772,1.208 0.972,1.92c0.2,0.712 0.3,1.436 0.3,2.172l0,0.768l-9.12,0ZM723.34,621.975c-0.016,-0.48 -0.092,-0.92 -0.228,-1.32c-0.136,-0.4 -0.34,-0.748 -0.612,-1.044c-0.272,-0.296 -0.612,-0.528 -1.02,-0.696c-0.408,-0.168 -0.884,-0.252 -1.428,-0.252c-0.528,0 -1.012,0.1 -1.452,0.3c-0.44,0.2 -0.812,0.46 -1.116,0.78c-0.304,0.32 -0.54,0.676 -0.708,1.068c-0.168,0.392 -0.252,0.78 -0.252,1.164l6.816,0Z" style="fill:#000;fill-rule:nonzero;"/><path d="M728.356,617.223l2.16,0l0,1.752l0.048,0c0.272,-0.608 0.744,-1.1 1.416,-1.476c0.672,-0.376 1.448,-0.564 2.328,-0.564c0.544,0 1.068,0.084 1.572,0.252c0.504,0.168 0.944,0.428 1.32,0.78c0.376,0.352 0.676,0.804 0.9,1.356c0.224,0.552 0.336,1.204 0.336,1.956l0,7.32l-2.16,0l0,-6.72c0,-0.528 -0.072,-0.98 -0.216,-1.356c-0.144,-0.376 -0.336,-0.68 -0.576,-0.912c-0.24,-0.232 -0.516,-0.4 -0.828,-0.504c-0.312,-0.104 -0.636,-0.156 -0.972,-0.156c-0.448,0 -0.864,0.072 -1.248,0.216c-0.384,0.144 -0.72,0.372 -1.008,0.684c-0.288,0.312 -0.512,0.708 -0.672,1.188c-0.16,0.48 -0.24,1.048 -0.24,1.704l0,5.856l-2.16,0l0,-11.376Z" style="fill:#000;fill-rule:nonzero;"/><path d="M753.22,628.599l-2.16,0l0,-1.632l-0.048,0c-0.416,0.608 -0.988,1.08 -1.716,1.416c-0.728,0.336 -1.476,0.504 -2.244,0.504c-0.88,0 -1.676,-0.152 -2.388,-0.456c-0.712,-0.304 -1.32,-0.728 -1.824,-1.272c-0.504,-0.544 -0.892,-1.176 -1.164,-1.896c-0.272,-0.72 -0.408,-1.504 -0.408,-2.352c0,-0.848 0.136,-1.636 0.408,-2.364c0.272,-0.728 0.66,-1.36 1.164,-1.896c0.504,-0.536 1.112,-0.956 1.824,-1.26c0.712,-0.304 1.508,-0.456 2.388,-0.456c0.816,0 1.584,0.172 2.304,0.516c0.72,0.344 1.272,0.812 1.656,1.404l0.048,0l0,-8.4l2.16,0l0,18.144ZM747.316,626.871c0.576,0 1.096,-0.1 1.56,-0.3c0.464,-0.2 0.856,-0.472 1.176,-0.816c0.32,-0.344 0.568,-0.76 0.744,-1.248c0.176,-0.488 0.264,-1.02 0.264,-1.596c0,-0.576 -0.088,-1.108 -0.264,-1.596c-0.176,-0.488 -0.424,-0.904 -0.744,-1.248c-0.32,-0.344 -0.712,-0.616 -1.176,-0.816c-0.464,-0.2 -0.984,-0.3 -1.56,-0.3c-0.576,0 -1.096,0.1 -1.56,0.3c-0.464,0.2 -0.856,0.472 -1.176,0.816c-0.32,0.344 -0.568,0.76 -0.744,1.248c-0.176,0.488 -0.264,1.02 -0.264,1.596c0,0.576 0.088,1.108 0.264,1.596c0.176,0.488 0.424,0.904 0.744,1.248c0.32,0.344 0.712,0.616 1.176,0.816c0.464,0.2 0.984,0.3 1.56,0.3Z" style="fill:#000;fill-rule:nonzero;"/><path d="M758.236,623.703c0,0.496 0.108,0.948 0.324,1.356c0.216,0.408 0.5,0.756 0.852,1.044c0.352,0.288 0.76,0.512 1.224,0.672c0.464,0.16 0.944,0.24 1.44,0.24c0.672,0 1.256,-0.156 1.752,-0.468c0.496,-0.312 0.952,-0.724 1.368,-1.236l1.632,1.248c-1.2,1.552 -2.88,2.328 -5.04,2.328c-0.896,0 -1.708,-0.152 -2.436,-0.456c-0.728,-0.304 -1.344,-0.724 -1.848,-1.26c-0.504,-0.536 -0.892,-1.168 -1.164,-1.896c-0.272,-0.728 -0.408,-1.516 -0.408,-2.364c0,-0.848 0.148,-1.636 0.444,-2.364c0.296,-0.728 0.704,-1.36 1.224,-1.896c0.52,-0.536 1.14,-0.956 1.86,-1.26c0.72,-0.304 1.504,-0.456 2.352,-0.456c1.008,0 1.86,0.176 2.556,0.528c0.696,0.352 1.268,0.812 1.716,1.38c0.448,0.568 0.772,1.208 0.972,1.92c0.2,0.712 0.3,1.436 0.3,2.172l0,0.768l-9.12,0ZM765.052,621.975c-0.016,-0.48 -0.092,-0.92 -0.228,-1.32c-0.136,-0.4 -0.34,-0.748 -0.612,-1.044c-0.272,-0.296 -0.612,-0.528 -1.02,-0.696c-0.408,-0.168 -0.884,-0.252 -1.428,-0.252c-0.528,0 -1.012,0.1 -1.452,0.3c-0.44,0.2 -0.812,0.46 -1.116,0.78c-0.304,0.32 -0.54,0.676 -0.708,1.068c-0.168,0.392 -0.252,0.78 -0.252,1.164l6.816,0Z" style="fill:#000;fill-rule:nonzero;"/><path d="M770.068,617.223l2.16,0l0,1.752l0.048,0c0.272,-0.608 0.744,-1.1 1.416,-1.476c0.672,-0.376 1.448,-0.564 2.328,-0.564c0.544,0 1.068,0.084 1.572,0.252c0.504,0.168 0.944,0.428 1.32,0.78c0.376,0.352 0.676,0.804 0.9,1.356c0.224,0.552 0.336,1.204 0.336,1.956l0,7.32l-2.16,0l0,-6.72c0,-0.528 -0.072,-0.98 -0.216,-1.356c-0.144,-0.376 -0.336,-0.68 -0.576,-0.912c-0.24,-0.232 -0.516,-0.4 -0.828,-0.504c-0.312,-0.104 -0.636,-0.156 -0.972,-0.156c-0.448,0 -0.864,0.072 -1.248,0.216c-0.384,0.144 -0.72,0.372 -1.008,0.684c-0.288,0.312 -0.512,0.708 -0.672,1.188c-0.16,0.48 -0.24,1.048 -0.24,1.704l0,5.856l-2.16,0l0,-11.376Z" style="fill:#000;fill-rule:nonzero;"/><path d="M789.628,619.095l-3.096,0l0,5.16c0,0.32 0.008,0.636 0.024,0.948c0.016,0.312 0.076,0.592 0.18,0.84c0.104,0.248 0.264,0.448 0.48,0.6c0.216,0.152 0.532,0.228 0.948,0.228c0.256,0 0.52,-0.024 0.792,-0.072c0.272,-0.048 0.52,-0.136 0.744,-0.264l0,1.968c-0.256,0.144 -0.588,0.244 -0.996,0.3c-0.408,0.056 -0.724,0.084 -0.948,0.084c-0.832,0 -1.476,-0.116 -1.932,-0.348c-0.456,-0.232 -0.792,-0.532 -1.008,-0.9c-0.216,-0.368 -0.344,-0.78 -0.384,-1.236c-0.04,-0.456 -0.06,-0.916 -0.06,-1.38l0,-5.928l-2.496,0l0,-1.872l2.496,0l0,-3.192l2.16,0l0,3.192l3.096,0l0,1.872Z" style="fill:#000;fill-rule:nonzero;"/><rect x="792.7" y="610.455" width="2.16" height="18.144" style="fill:#000;fill-rule:nonzero;"/><path d="M797.044,617.223l2.496,0l3.384,8.88l0.048,0l3.216,-8.88l2.328,0l-5.4,13.824c-0.192,0.496 -0.392,0.948 -0.6,1.356c-0.208,0.408 -0.456,0.756 -0.744,1.044c-0.288,0.288 -0.636,0.512 -1.044,0.672c-0.408,0.16 -0.908,0.24 -1.5,0.24c-0.32,0 -0.644,-0.02 -0.972,-0.06c-0.328,-0.04 -0.644,-0.124 -0.948,-0.252l0.264,-1.968c0.432,0.176 0.864,0.264 1.296,0.264c0.336,0 0.62,-0.044 0.852,-0.132c0.232,-0.088 0.432,-0.216 0.6,-0.384c0.168,-0.168 0.308,-0.364 0.42,-0.588c0.112,-0.224 0.224,-0.48 0.336,-0.768l0.696,-1.8l-4.728,-11.448Z" style="fill:#000;fill-rule:nonzero;"/><path d="M823.42,619.095l-3.096,0l0,5.16c0,0.32 0.008,0.636 0.024,0.948c0.016,0.312 0.076,0.592 0.18,0.84c0.104,0.248 0.264,0.448 0.48,0.6c0.216,0.152 0.532,0.228 0.948,0.228c0.256,0 0.52,-0.024 0.792,-0.072c0.272,-0.048 0.52,-0.136 0.744,-0.264l0,1.968c-0.256,0.144 -0.588,0.244 -0.996,0.3c-0.408,0.056 -0.724,0.084 -0.948,0.084c-0.832,0 -1.476,-0.116 -1.932,-0.348c-0.456,-0.232 -0.792,-0.532 -1.008,-0.9c-0.216,-0.368 -0.344,-0.78 -0.384,-1.236c-0.04,-0.456 -0.06,-0.916 -0.06,-1.38l0,-5.928l-2.496,0l0,-1.872l2.496,0l0,-3.192l2.16,0l0,3.192l3.096,0l0,1.872Z" style="fill:#000;fill-rule:nonzero;"/><path d="M828.076,622.911c0,0.576 0.088,1.108 0.264,1.596c0.176,0.488 0.424,0.904 0.744,1.248c0.32,0.344 0.712,0.616 1.176,0.816c0.464,0.2 0.984,0.3 1.56,0.3c0.576,0 1.096,-0.1 1.56,-0.3c0.464,-0.2 0.856,-0.472 1.176,-0.816c0.32,-0.344 0.568,-0.76 0.744,-1.248c0.176,-0.488 0.264,-1.02 0.264,-1.596c0,-0.576 -0.088,-1.108 -0.264,-1.596c-0.176,-0.488 -0.424,-0.904 -0.744,-1.248c-0.32,-0.344 -0.712,-0.616 -1.176,-0.816c-0.464,-0.2 -0.984,-0.3 -1.56,-0.3c-0.576,0 -1.096,0.1 -1.56,0.3c-0.464,0.2 -0.856,0.472 -1.176,0.816c-0.32,0.344 -0.568,0.76 -0.744,1.248c-0.176,0.488 -0.264,1.02 -0.264,1.596ZM825.772,622.911c0,-0.832 0.156,-1.608 0.468,-2.328c0.312,-0.72 0.74,-1.352 1.284,-1.896c0.544,-0.544 1.184,-0.972 1.92,-1.284c0.736,-0.312 1.528,-0.468 2.376,-0.468c0.848,0 1.64,0.156 2.376,0.468c0.736,0.312 1.376,0.74 1.92,1.284c0.544,0.544 0.972,1.176 1.284,1.896c0.312,0.72 0.468,1.496 0.468,2.328c0,0.832 -0.156,1.612 -0.468,2.34c-0.312,0.728 -0.74,1.36 -1.284,1.896c-0.544,0.536 -1.184,0.96 -1.92,1.272c-0.736,0.312 -1.528,0.468 -2.376,0.468c-0.848,0 -1.64,-0.156 -2.376,-0.468c-0.736,-0.312 -1.376,-0.736 -1.92,-1.272c-0.544,-0.536 -0.972,-1.168 -1.284,-1.896c-0.312,-0.728 -0.468,-1.508 -0.468,-2.34Z" style="fill:#000;fill-rule:nonzero;"/><path d="M852.1,628.503c0,0.864 -0.148,1.652 -0.444,2.364c-0.296,0.712 -0.716,1.328 -1.26,1.848c-0.544,0.52 -1.2,0.924 -1.968,1.212c-0.768,0.288 -1.616,0.432 -2.544,0.432c-1.088,0 -2.084,-0.152 -2.988,-0.456c-0.904,-0.304 -1.764,-0.832 -2.58,-1.584l1.464,-1.824c0.56,0.608 1.168,1.068 1.824,1.38c0.656,0.312 1.4,0.468 2.232,0.468c0.8,0 1.464,-0.116 1.992,-0.348c0.528,-0.232 0.948,-0.532 1.26,-0.9c0.312,-0.368 0.532,-0.788 0.66,-1.26c0.128,-0.472 0.192,-0.948 0.192,-1.428l0,-1.68l-0.072,0c-0.416,0.688 -0.98,1.196 -1.692,1.524c-0.712,0.328 -1.46,0.492 -2.244,0.492c-0.832,0 -1.604,-0.148 -2.316,-0.444c-0.712,-0.296 -1.324,-0.704 -1.836,-1.224c-0.512,-0.52 -0.912,-1.136 -1.2,-1.848c-0.288,-0.712 -0.432,-1.484 -0.432,-2.316c0,-0.832 0.136,-1.612 0.408,-2.34c0.272,-0.728 0.66,-1.364 1.164,-1.908c0.504,-0.544 1.112,-0.968 1.824,-1.272c0.712,-0.304 1.508,-0.456 2.388,-0.456c0.768,0 1.516,0.168 2.244,0.504c0.728,0.336 1.3,0.808 1.716,1.416l0.048,0l0,-1.632l2.16,0l0,11.28ZM846.196,618.951c-0.576,0 -1.096,0.1 -1.56,0.3c-0.464,0.2 -0.856,0.472 -1.176,0.816c-0.32,0.344 -0.568,0.76 -0.744,1.248c-0.176,0.488 -0.264,1.02 -0.264,1.596c0,1.152 0.336,2.076 1.008,2.772c0.672,0.696 1.584,1.044 2.736,1.044c1.152,0 2.064,-0.348 2.736,-1.044c0.672,-0.696 1.008,-1.62 1.008,-2.772c0,-0.576 -0.088,-1.108 -0.264,-1.596c-0.176,-0.488 -0.424,-0.904 -0.744,-1.248c-0.32,-0.344 -0.712,-0.616 -1.176,-0.816c-0.464,-0.2 -0.984,-0.3 -1.56,-0.3Z" style="fill:#000;fill-rule:nonzero;"/><path d="M857.116,623.703c0,0.496 0.108,0.948 0.324,1.356c0.216,0.408 0.5,0.756 0.852,1.044c0.352,0.288 0.76,0.512 1.224,0.672c0.464,0.16 0.944,0.24 1.44,0.24c0.672,0 1.256,-0.156 1.752,-0.468c0.496,-0.312 0.952,-0.724 1.368,-1.236l1.632,1.248c-1.2,1.552 -2.88,2.328 -5.04,2.328c-0.896,0 -1.708,-0.152 -2.436,-0.456c-0.728,-0.304 -1.344,-0.724 -1.848,-1.26c-0.504,-0.536 -0.892,-1.168 -1.164,-1.896c-0.272,-0.728 -0.408,-1.516 -0.408,-2.364c0,-0.848 0.148,-1.636 0.444,-2.364c0.296,-0.728 0.704,-1.36 1.224,-1.896c0.52,-0.536 1.14,-0.956 1.86,-1.26c0.72,-0.304 1.504,-0.456 2.352,-0.456c1.008,0 1.86,0.176 2.556,0.528c0.696,0.352 1.268,0.812 1.716,1.38c0.448,0.568 0.772,1.208 0.972,1.92c0.2,0.712 0.3,1.436 0.3,2.172l0,0.768l-9.12,0ZM863.932,621.975c-0.016,-0.48 -0.092,-0.92 -0.228,-1.32c-0.136,-0.4 -0.34,-0.748 -0.612,-1.044c-0.272,-0.296 -0.612,-0.528 -1.02,-0.696c-0.408,-0.168 -0.884,-0.252 -1.428,-0.252c-0.528,0 -1.012,0.1 -1.452,0.3c-0.44,0.2 -0.812,0.46 -1.116,0.78c-0.304,0.32 -0.54,0.676 -0.708,1.068c-0.168,0.392 -0.252,0.78 -0.252,1.164l6.816,0Z" style="fill:#000;fill-rule:nonzero;"/><path d="M875.044,619.095l-3.096,0l0,5.16c0,0.32 0.008,0.636 0.024,0.948c0.016,0.312 0.076,0.592 0.18,0.84c0.104,0.248 0.264,0.448 0.48,0.6c0.216,0.152 0.532,0.228 0.948,0.228c0.256,0 0.52,-0.024 0.792,-0.072c0.272,-0.048 0.52,-0.136 0.744,-0.264l0,1.968c-0.256,0.144 -0.588,0.244 -0.996,0.3c-0.408,0.056 -0.724,0.084 -0.948,0.084c-0.832,0 -1.476,-0.116 -1.932,-0.348c-0.456,-0.232 -0.792,-0.532 -1.008,-0.9c-0.216,-0.368 -0.344,-0.78 -0.384,-1.236c-0.04,-0.456 -0.06,-0.916 -0.06,-1.38l0,-5.928l-2.496,0l0,-1.872l2.496,0l0,-3.192l2.16,0l0,3.192l3.096,0l0,1.872Z" style="fill:#000;fill-rule:nonzero;"/><path d="M877.948,610.455l2.16,0l0,8.52l0.048,0c0.272,-0.608 0.744,-1.1 1.416,-1.476c0.672,-0.376 1.448,-0.564 2.328,-0.564c0.544,0 1.068,0.084 1.572,0.252c0.504,0.168 0.944,0.428 1.32,0.78c0.376,0.352 0.676,0.804 0.9,1.356c0.224,0.552 0.336,1.204 0.336,1.956l0,7.32l-2.16,0l0,-6.72c0,-0.528 -0.072,-0.98 -0.216,-1.356c-0.144,-0.376 -0.336,-0.68 -0.576,-0.912c-0.24,-0.232 -0.516,-0.4 -0.828,-0.504c-0.312,-0.104 -0.636,-0.156 -0.972,-0.156c-0.448,0 -0.864,0.072 -1.248,0.216c-0.384,0.144 -0.72,0.372 -1.008,0.684c-0.288,0.312 -0.512,0.708 -0.672,1.188c-0.16,0.48 -0.24,1.048 -0.24,1.704l0,5.856l-2.16,0l0,-18.144Z" style="fill:#000;fill-rule:nonzero;"/><path d="M893.044,623.703c0,0.496 0.108,0.948 0.324,1.356c0.216,0.408 0.5,0.756 0.852,1.044c0.352,0.288 0.76,0.512 1.224,0.672c0.464,0.16 0.944,0.24 1.44,0.24c0.672,0 1.256,-0.156 1.752,-0.468c0.496,-0.312 0.952,-0.724 1.368,-1.236l1.632,1.248c-1.2,1.552 -2.88,2.328 -5.04,2.328c-0.896,0 -1.708,-0.152 -2.436,-0.456c-0.728,-0.304 -1.344,-0.724 -1.848,-1.26c-0.504,-0.536 -0.892,-1.168 -1.164,-1.896c-0.272,-0.728 -0.408,-1.516 -0.408,-2.364c0,-0.848 0.148,-1.636 0.444,-2.364c0.296,-0.728 0.704,-1.36 1.224,-1.896c0.52,-0.536 1.14,-0.956 1.86,-1.26c0.72,-0.304 1.504,-0.456 2.352,-0.456c1.008,0 1.86,0.176 2.556,0.528c0.696,0.352 1.268,0.812 1.716,1.38c0.448,0.568 0.772,1.208 0.972,1.92c0.2,0.712 0.3,1.436 0.3,2.172l0,0.768l-9.12,0ZM899.86,621.975c-0.016,-0.48 -0.092,-0.92 -0.228,-1.32c-0.136,-0.4 -0.34,-0.748 -0.612,-1.044c-0.272,-0.296 -0.612,-0.528 -1.02,-0.696c-0.408,-0.168 -0.884,-0.252 -1.428,-0.252c-0.528,0 -1.012,0.1 -1.452,0.3c-0.44,0.2 -0.812,0.46 -1.116,0.78c-0.304,0.32 -0.54,0.676 -0.708,1.068c-0.168,0.392 -0.252,0.78 -0.252,1.164l6.816,0Z" style="fill:#000;fill-rule:nonzero;"/><path d="M904.876,617.223l2.16,0l0,1.752l0.048,0c0.144,-0.304 0.336,-0.58 0.576,-0.828c0.24,-0.248 0.508,-0.46 0.804,-0.636c0.296,-0.176 0.62,-0.316 0.972,-0.42c0.352,-0.104 0.704,-0.156 1.056,-0.156c0.352,0 0.672,0.048 0.96,0.144l-0.096,2.328c-0.176,-0.048 -0.352,-0.088 -0.528,-0.12c-0.176,-0.032 -0.352,-0.048 -0.528,-0.048c-1.056,0 -1.864,0.296 -2.424,0.888c-0.56,0.592 -0.84,1.512 -0.84,2.76l0,5.712l-2.16,0l0,-11.376Z" style="fill:#000;fill-rule:nonzero;"/><path d="M913.372,628.743c-0.432,0 -0.804,-0.156 -1.116,-0.468c-0.312,-0.312 -0.468,-0.684 -0.468,-1.116c0,-0.432 0.156,-0.804 0.468,-1.116c0.312,-0.312 0.684,-0.468 1.116,-0.468c0.432,0 0.804,0.156 1.116,0.468c0.312,0.312 0.468,0.684 0.468,1.116c0,0.432 -0.156,0.804 -0.468,1.116c-0.312,0.312 -0.684,0.468 -1.116,0.468Z" style="fill:#000;fill-rule:nonzero;"/></g></svg>