<?xml version="1.0" standalone="no"?><!DOCTYPE svg PUBLIC "-//W3C//DTD SVG 1.1//EN" "http://www.w3.org/Graphics/SVG/1.1/DTD/svg11.dtd"><svg width="100%" height="100%" viewBox="0 0 272 112" version="1.1" xmlns="http://www.w3.org/2000/svg" xmlns:xlink="http://www.w3.org/1999/xlink" xml:space="preserve" style="fill-rule:evenodd;clip-rule:evenodd;stroke-linecap:square;stroke-miterlimit:1.41421;"><g><path d="M112.258,36.139l-1.978,9.21c5.115,9.795 20.617,11.576 42.111,8.374c29.592,-6.229 41.428,10.551 46.299,34.565l5.834,-0.649c-3.1,-19.166 -0.941,-35.934 24.621,-41.485c8.263,-1.858 8.972,-1.76 17.543,-4.672c5.756,-1.956 11.748,-9.071 5.3,-19.767c-33.145,15.726 -60.231,14.143 -79.23,-6.213c-8.539,-11.851 -17.488,-16.758 -27.377,-5.746l-33.123,26.383Z" style="fill:none;stroke-width:1.88px;stroke:#000;"/><path d="M80.863,51.345c-20.281,4.415 -5.298,12.942 1.252,15.516c7.474,2.937 28.102,5.49 42.596,4.456c33.85,-2.416 52.395,4.339 56.249,19.897" style="fill:none;stroke-width:1.13px;stroke:#000;"/><path d="M262.093,19.779c4.362,21.14 -0.842,30.081 -14.849,31.97c-30.386,4.097 -35.876,13.412 -32.29,33.49" style="fill:none;stroke-width:1.5px;stroke:#000;"/><path d="M174.449,17.309c-23.296,13.644 -34.223,25.312 -38.984,37.191" style="fill:none;stroke-width:1.88px;stroke:#000;"/><path d="M7.344,66.447c-4.658,4.801 6.523,12.159 38.16,23.737c44.112,12.469 82.642,14.987 111.287,7.045c8.2,-2.273 15.56,-2.904 21.191,-4.42c9.42,-3.473 30.55,-6.393 65.874,-8.642c12.956,-1.853 24.305,-4.046 22.303,-9.069" style="fill:none;stroke-width:1.88px;stroke:#000;"/><circle cx="155.463" cy="13.119" r="1.61" style="fill:#fff;stroke-width:1.88px;stroke:#000;"/><circle cx="146.634" cy="18.838" r="1.61" style="fill:#fff;stroke-width:1.88px;stroke:#000;"/><circle cx="138.74" cy="24.517" r="1.61" style="fill:#fff;stroke-width:1.88px;stroke:#000;"/><circle cx="130.261" cy="30.634" r="1.61" style="fill:#fff;stroke-width:1.88px;stroke:#000;"/><circle cx="121.02" cy="37.181" r="1.61" style="fill:#fff;stroke-width:1.88px;stroke:#000;"/><path d="M150.313,2.905c-0.761,-0.725 -1.577,-1.027 -2.471,-0.712c-0.632,0.44 -0.875,1.124 -0.457,2.219c1.13,3.081 3.285,5.654 5.797,8.049c0.707,0.719 1.39,0.811 2.059,0.534c0.387,-0.262 0.53,-0.783 0.119,-1.786c-2.562,-2.871 -5.03,-5.731 -5.047,-8.304Z" style="fill:#000;"/><path d="M142.728,8.788c-0.672,-0.748 -1.42,-1.089 -2.278,-0.835c-0.621,0.39 -0.89,1.04 -0.563,2.128c0.875,3.058 2.743,5.682 4.958,8.154c0.62,0.74 1.256,0.869 1.901,0.639c0.379,-0.232 0.545,-0.729 0.219,-1.727c-2.232,-2.938 -4.377,-5.859 -4.237,-8.359Z" style="fill:#000;"/><path d="M125.983,21.258c-0.645,-0.69 -1.362,-1.006 -2.184,-0.775c-0.594,0.359 -0.85,0.956 -0.535,1.958c0.846,2.816 2.641,5.236 4.769,7.517c0.596,0.682 1.205,0.803 1.823,0.593c0.362,-0.213 0.52,-0.67 0.205,-1.59c-2.145,-2.709 -4.207,-5.403 -4.078,-7.703Z" style="fill:#000;"/><path d="M134.361,15.555c-0.645,-0.691 -1.11,-1.642 -1.933,-1.41c-0.593,0.358 -0.849,0.955 -0.534,1.957c0.846,2.817 2.641,5.237 4.769,7.518c0.596,0.682 1.205,0.802 1.822,0.592c0.363,-0.213 0.52,-0.67 0.206,-1.589c-1.875,-2.929 -3.987,-5.15 -4.33,-7.068Z" style="fill:#000;"/><path d="M119.559,28.66c-0.645,-0.69 -1.694,-1.504 -2.516,-1.273c-0.833,0.019 -2.094,1.881 -1.65,3.067c0.215,2.399 1.966,4.067 3.579,5.913c0.596,0.682 1.206,0.802 1.823,0.592c0.363,-0.213 0.52,-0.67 0.206,-1.589c-3.213,-3.386 -4.656,-6.364 -1.442,-6.71Z" style="fill:#000;"/><path d="M149.967,3.552c-8.758,5.793 -28.167,22.941 -41.424,35.246c-14.12,10.972 -32.301,15.095 -53.805,13.611c-11.934,-0.945 -23.572,-0.638 -34.425,2.528c-7.282,1.765 -12.554,4.932 -12.888,11.547c0,0 -3.303,1.377 -4.366,2.61c-0.535,1.34 -0.583,1.957 -1.12,4.13c-0.416,1.684 -0.627,2.109 0.721,3.508c0.472,0.49 1.232,1.248 1.848,1.735c14.447,11.567 45.028,23.399 77.254,28.245c47.77,7.752 67.016,0.053 82.508,-3.738c11.588,-2.835 35.056,-7.203 35.056,-7.203l2.197,11.482c10.722,0.119 20.556,0.096 29.188,-0.161c18.788,-0.559 31.883,-1.662 36.055,-4.848c0,0 1.483,-20.532 1.388,-24.887c-0.021,-0.976 -1.909,-2.209 -1.909,-2.209c3.886,-7.983 3.818,-17.785 1.888,-28.444c-1.089,-7.938 -2.617,-14.125 -4.146,-17.86c-1.436,-3.51 -1.242,-7.458 -1.468,-11.201c-13.081,1.132 -26.895,4.629 -40.465,5.922c-12.306,1.173 -29.228,3.951 -46.139,-8.722c-0.327,0.192 -12.009,-10.872 -15.761,-12.742c-2.302,-1.147 -7.912,-0.054 -10.187,1.451Z" style="fill:none;stroke-width:1.88px;stroke:#000;"/><path d="M267.47,96.925c-6.271,5.079 -37.925,5.594 -66.568,5.881l0.697,5.163c26.286,-1.037 55.461,0.415 65.637,-5.757l0.234,-5.287Z" style="fill:#fff;stroke-width:1.88px;stroke:#040000;"/><path d="M122.745,26.346l22.952,-16.955c8.482,-7.369 15.122,-7.056 19.701,-1.078c23.487,25.45 43.173,27.043 61.666,21.149l35.286,-11.334" style="fill:none;stroke-width:1.88px;stroke:#000;"/><path d="M2.48,70.846c2.263,4.376 15.819,11.561 24.039,15.623c21.31,10.532 68.898,20.853 97.195,18.86c22.829,-1.608 36.397,-4.975 67.549,-12.631c18.381,-2.672 36.711,-4.404 54.964,-5.578c15.934,-1.66 23.195,-5.079 22.18,-8.229" style="fill:none;stroke-width:0.75px;stroke:#000;"/></g></svg>